<svg width="219" height="200" viewBox="0 0 219 200" fill="none" xmlns="http://www.w3.org/2000/svg">
<path fill-rule="evenodd" clip-rule="evenodd" d="M6.73656 91.6694C-14.7584 132.82 16.2078 179.517 85.0374 179.891C153.867 180.265 232.591 168.038 216.587 125.312C200.583 82.5859 140.457 125.075 108.118 90.9962C75.7787 56.9169 28.2315 50.519 6.73656 91.6694Z" fill="#E9F5EC"/>
<path fill-rule="evenodd" clip-rule="evenodd" d="M135.663 75.7522C142.893 93.8268 184.44 101.096 190.779 89.1027C197.118 77.1089 177.849 75.2107 166.939 58.8001C156.028 42.3894 128.432 57.6777 135.663 75.7522Z" fill="#E9F5EC"/>
<path fill-rule="evenodd" clip-rule="evenodd" d="M32.2833 134.396C37.3143 178.132 64.6602 200 114.321 200C163.982 200 191.328 178.132 196.359 134.396H32.2833Z" fill="#5A4F53"/>
<path d="M114.321 159.049C159.629 159.049 196.359 148.012 196.359 134.396C196.359 120.78 159.629 109.743 114.321 109.743C69.0129 109.743 32.2833 120.78 32.2833 134.396C32.2833 148.012 69.0129 159.049 114.321 159.049Z" fill="#393035"/>
<path d="M118.689 152.981C160.746 152.981 194.84 143.811 194.84 132.5C194.84 121.188 160.746 112.018 118.689 112.018C76.632 112.018 42.5381 121.188 42.5381 132.5C42.5381 143.811 76.632 152.981 118.689 152.981Z" fill="white"/>
<path d="M117.55 152.981C159.607 152.981 193.701 143.811 193.701 132.5C193.701 121.188 159.607 112.018 117.55 112.018C75.4929 112.018 41.3989 121.188 41.3989 132.5C41.3989 143.811 75.4929 152.981 117.55 152.981Z" fill="#5A4F53"/>
<path d="M115.271 151.843C156.069 151.843 189.143 142.928 189.143 131.931C189.143 120.933 156.069 112.018 115.271 112.018C74.4726 112.018 41.3989 120.933 41.3989 131.931C41.3989 142.928 74.4726 151.843 115.271 151.843Z" fill="#251F22"/>
<mask id="mask0_154_5116" style="mask-type:alpha" maskUnits="userSpaceOnUse" x="38" y="71" width="152" height="81">
<path d="M115.271 151.843C156.069 151.843 189.143 142.928 189.143 131.931C189.852 91.5909 156.069 71.6868 115.271 71.6868C74.4726 71.6868 24.7051 100.998 41.3989 131.931C41.3989 142.928 74.4726 151.843 115.271 151.843Z" fill="white"/>
</mask>
<g mask="url(#mask0_154_5116)">
<path fill-rule="evenodd" clip-rule="evenodd" d="M68.5163 132.368C77.8661 113.652 88.1161 104.293 99.2663 104.293C115.992 104.293 117.832 120.392 138.931 120.392C160.031 120.392 175.526 123.867 180.28 132.368H68.5163Z" fill="#FDC952"/>
<path d="M81.1225 129.684C81.1225 129.684 91.2923 112.77 98.5542 112.77C105.816 112.77 112.223 119.976 120.564 124.83C128.905 129.684 148.087 126.938 148.087 129.684" stroke="white" stroke-width="3.43728"/>
<path d="M82.6611 135.245C82.6611 135.245 91.7809 119.438 100.476 119.438C109.171 119.438 111.465 125.537 119.19 130.391C126.915 135.245 144.682 132.499 144.682 135.245" stroke="white" stroke-width="3.43728"/>
<path d="M82.6611 140.616C82.6611 140.616 91.7809 124.81 100.476 124.81C109.171 124.81 111.465 130.908 119.19 135.762C126.915 140.616 144.682 137.87 144.682 140.616" stroke="white" stroke-width="3.43728"/>
<path d="M74.6827 131.242C83.6645 115.504 91.6852 107.634 98.7449 107.634C109.334 107.634 114.215 119.043 128.905 122.458C143.594 125.874 162.946 122.361 171.387 129.361" stroke="white" stroke-width="3.43728"/>
<path fill-rule="evenodd" clip-rule="evenodd" d="M74.9428 163.105L63.2623 162.903C60.2354 162.85 57.7436 160.507 57.5051 157.489C57.248 154.236 55.1518 151.417 52.1103 150.233L50.9514 149.782C47.498 148.439 45.6741 144.651 46.777 141.113C47.0756 140.156 47.3741 139.198 47.6727 138.24C46.9926 137.539 46.3125 136.837 45.6324 136.136C43.0143 133.436 43.0809 129.124 45.7811 126.506C45.8232 126.466 45.8658 126.425 45.909 126.385L46.9974 125.383C49.2341 123.324 52.7165 123.468 54.7758 125.705C54.7767 125.706 54.7776 125.707 54.7785 125.708L55.5506 126.548C57.3055 128.457 60.1044 128.99 62.4382 127.859C64.2595 126.977 66.4512 127.739 67.3334 129.56C67.4265 129.752 67.5026 129.952 67.5609 130.158L69.2454 136.099C70.0776 139.035 73.1322 140.74 76.0679 139.908C76.1906 139.873 76.3121 139.834 76.4321 139.791C78.0211 139.219 79.7729 140.044 80.3448 141.633C80.5596 142.23 80.5835 142.879 80.4131 143.49L74.9428 163.105Z" fill="#219E43"/>
<path fill-rule="evenodd" clip-rule="evenodd" d="M157.119 161.358L151.131 151.468C149.559 148.871 150.23 145.502 152.677 143.706C155.32 141.767 156.615 138.483 156.008 135.261L155.791 134.106C155.108 130.486 157.342 126.955 160.905 126.021C161.909 125.757 162.912 125.494 163.916 125.23C164.152 124.3 164.387 123.37 164.622 122.44C165.559 118.742 169.316 116.502 173.015 117.439C173.047 117.447 173.08 117.455 173.112 117.464L174.576 117.858C177.471 118.635 179.186 121.611 178.409 124.506C178.403 124.527 178.397 124.548 178.391 124.57L178.085 125.655C177.384 128.143 178.414 130.794 180.612 132.156C182.309 133.208 182.833 135.438 181.78 137.136C181.662 137.327 181.525 137.508 181.373 137.674L177.158 142.273C175.125 144.492 175.275 147.938 177.493 149.971C177.602 150.071 177.715 150.166 177.831 150.256C179.152 151.283 179.39 153.185 178.364 154.506C177.974 155.007 177.437 155.373 176.828 155.553L157.119 161.358Z" fill="#219E43"/>
<path fill-rule="evenodd" clip-rule="evenodd" d="M163.965 148.789L170.074 148.301C174.935 147.912 178.94 144.328 179.865 139.54L180.385 136.844C181.016 133.576 179.601 130.251 176.808 128.439C173.919 126.563 170.288 126.242 167.113 127.58L165.287 128.35L163.912 128.112C159.972 127.432 155.942 128.646 153.033 131.389C150.32 133.948 149.703 138.029 151.539 141.276L152.276 142.58C154.632 146.748 159.192 149.17 163.965 148.789Z" fill="#C72326"/>
<path fill-rule="evenodd" clip-rule="evenodd" d="M161.721 127.927C159.005 128.63 153.015 131.232 152.17 135.654C151.234 140.558 155.988 148.644 164.238 148.639C164.573 148.639 164.863 148.659 165.111 148.697L163.973 148.788C159.195 149.17 154.633 146.748 152.276 142.58L151.534 141.268C149.701 138.026 150.32 133.948 153.033 131.389C155.403 129.154 158.518 127.933 161.721 127.927L161.721 127.927Z" fill="#9F1517"/>
<path fill-rule="evenodd" clip-rule="evenodd" d="M164.447 145.766L169.078 145.379C172.721 145.075 175.721 142.392 176.429 138.806L176.829 136.778C177.31 134.344 176.256 131.864 174.171 130.52C172.01 129.127 169.3 128.893 166.932 129.896L165.535 130.487L164.523 130.317C161.558 129.817 158.531 130.734 156.341 132.794C154.3 134.714 153.833 137.779 155.211 140.219L155.741 141.158C157.494 144.263 160.894 146.063 164.447 145.766Z" fill="#FE5F41"/>
<path fill-rule="evenodd" clip-rule="evenodd" d="M164.986 143.228L167.827 143.012C170.118 142.839 172.007 141.148 172.431 138.89L172.669 137.625C172.961 136.073 172.29 134.499 170.968 133.635C169.712 132.813 168.044 133.029 167.039 134.144L165.458 135.897L164.221 134.853C162.922 133.757 161.007 133.812 159.773 134.98C158.5 136.184 158.212 138.102 159.076 139.627L159.44 140.27C160.56 142.247 162.721 143.399 164.986 143.228Z" fill="#C72326"/>
<path fill-rule="evenodd" clip-rule="evenodd" d="M165.294 133.351C165.921 133.296 166.473 133.759 166.528 134.386L166.736 136.76C167.861 136.923 168.712 137.553 168.784 138.376C168.856 139.198 168.127 139.967 167.048 140.323L167.222 142.319C167.277 142.945 166.814 143.498 166.187 143.552L166.186 143.552C165.559 143.607 165.007 143.144 164.952 142.517L164.768 140.411C163.84 140.173 163.172 139.597 163.108 138.872C163.045 138.147 163.603 137.464 164.475 137.069L164.258 134.585C164.203 133.958 164.667 133.406 165.293 133.351L165.294 133.351Z" fill="#FFA27C"/>
<path d="M169.288 135.665C169.51 135.515 169.569 135.214 169.419 134.992C169.269 134.77 168.968 134.711 168.745 134.861C168.523 135.011 168.464 135.313 168.614 135.535C168.764 135.757 169.065 135.815 169.288 135.665Z" fill="#FFA27C"/>
<path d="M170.426 137.182C170.648 137.032 170.707 136.731 170.557 136.509C170.407 136.287 170.106 136.228 169.883 136.378C169.661 136.528 169.602 136.83 169.752 137.052C169.902 137.274 170.203 137.332 170.426 137.182Z" fill="#FFA27C"/>
<path d="M169.285 140.978C169.507 140.828 169.566 140.526 169.416 140.304C169.266 140.082 168.965 140.024 168.742 140.173C168.52 140.323 168.461 140.625 168.611 140.847C168.761 141.069 169.062 141.128 169.285 140.978Z" fill="#FFA27C"/>
<path d="M170.425 139.08C170.647 138.93 170.706 138.628 170.556 138.406C170.406 138.184 170.105 138.126 169.882 138.276C169.66 138.426 169.601 138.727 169.751 138.949C169.901 139.171 170.202 139.23 170.425 139.08Z" fill="#FFA27C"/>
<path d="M162.075 136.049C162.297 135.899 162.356 135.598 162.206 135.376C162.056 135.154 161.755 135.095 161.532 135.245C161.31 135.395 161.251 135.697 161.401 135.919C161.551 136.141 161.852 136.199 162.075 136.049Z" fill="#FFA27C"/>
<path d="M160.935 137.568C161.157 137.418 161.216 137.116 161.066 136.894C160.916 136.672 160.615 136.614 160.392 136.764C160.17 136.914 160.111 137.215 160.261 137.438C160.411 137.66 160.712 137.718 160.935 137.568Z" fill="#FFA27C"/>
<path d="M162.071 141.362C162.293 141.212 162.352 140.91 162.202 140.688C162.053 140.466 161.751 140.408 161.528 140.558C161.306 140.708 161.247 141.009 161.397 141.231C161.547 141.453 161.849 141.512 162.071 141.362Z" fill="#FFA27C"/>
<path d="M161.313 139.465C161.535 139.315 161.594 139.013 161.444 138.791C161.294 138.569 160.993 138.511 160.77 138.661C160.548 138.811 160.489 139.112 160.639 139.334C160.789 139.556 161.09 139.615 161.313 139.465Z" fill="#FFA27C"/>
<path fill-rule="evenodd" clip-rule="evenodd" d="M129.782 129.825L135.891 129.337C140.752 128.948 144.757 125.364 145.681 120.576L146.201 117.88C146.832 114.612 145.418 111.287 142.625 109.475C139.735 107.599 136.104 107.278 132.93 108.616L131.104 109.386L129.729 109.148C125.789 108.468 121.758 109.682 118.85 112.425C116.136 114.984 115.52 119.065 117.355 122.312L118.093 123.616C120.449 127.784 125.009 130.206 129.782 129.825Z" fill="#C72326"/>
<path fill-rule="evenodd" clip-rule="evenodd" d="M127.538 108.963C124.822 109.666 118.832 112.268 117.987 116.69C117.05 121.594 121.805 129.68 130.055 129.675C130.39 129.675 130.679 129.695 130.928 129.733L129.79 129.824C125.012 130.206 120.449 127.784 118.093 123.616L117.351 122.304C115.518 119.062 116.136 114.984 118.85 112.425C121.22 110.19 124.335 108.969 127.538 108.963L127.538 108.963Z" fill="#9F1517"/>
<path fill-rule="evenodd" clip-rule="evenodd" d="M130.264 126.802L134.895 126.415C138.538 126.111 141.538 123.428 142.246 119.842L142.646 117.814C143.127 115.38 142.073 112.9 139.988 111.556C137.827 110.163 135.116 109.929 132.749 110.932L131.352 111.523L130.34 111.353C127.375 110.853 124.348 111.77 122.158 113.83C120.117 115.75 119.65 118.815 121.028 121.255L121.558 122.194C123.31 125.299 126.711 127.099 130.264 126.802Z" fill="#FE5F41"/>
<path fill-rule="evenodd" clip-rule="evenodd" d="M130.803 124.264L133.644 124.048C135.935 123.875 137.823 122.184 138.248 119.926L138.486 118.661C138.778 117.109 138.106 115.535 136.785 114.671C135.528 113.849 133.861 114.065 132.855 115.18L131.275 116.933L130.038 115.889C128.739 114.793 126.824 114.848 125.59 116.016C124.316 117.22 124.029 119.138 124.893 120.663L125.257 121.306C126.376 123.283 128.537 124.435 130.803 124.264Z" fill="#C72326"/>
<path fill-rule="evenodd" clip-rule="evenodd" d="M131.111 114.387C131.738 114.332 132.29 114.795 132.345 115.422L132.553 117.796C133.678 117.959 134.528 118.589 134.6 119.412C134.672 120.234 133.944 121.003 132.865 121.359L133.039 123.355C133.094 123.981 132.63 124.534 132.004 124.588L132.003 124.588C131.376 124.643 130.824 124.18 130.769 123.553L130.585 121.447C129.657 121.209 128.988 120.633 128.925 119.908C128.862 119.183 129.42 118.5 130.292 118.105L130.075 115.621C130.02 114.994 130.484 114.442 131.11 114.387L131.111 114.387Z" fill="#FFA27C"/>
<path d="M135.105 116.701C135.327 116.551 135.386 116.25 135.236 116.028C135.086 115.806 134.785 115.747 134.562 115.897C134.34 116.047 134.281 116.349 134.431 116.571C134.581 116.793 134.882 116.851 135.105 116.701Z" fill="#FFA27C"/>
<path d="M136.242 118.218C136.465 118.068 136.524 117.767 136.374 117.545C136.224 117.323 135.922 117.264 135.7 117.414C135.478 117.564 135.419 117.866 135.568 118.088C135.718 118.31 136.02 118.368 136.242 118.218Z" fill="#FFA27C"/>
<path d="M135.101 122.014C135.324 121.864 135.383 121.562 135.233 121.34C135.083 121.118 134.781 121.06 134.559 121.21C134.337 121.359 134.278 121.661 134.428 121.883C134.577 122.105 134.879 122.164 135.101 122.014Z" fill="#FFA27C"/>
<path d="M136.241 120.116C136.464 119.966 136.523 119.664 136.373 119.442C136.223 119.22 135.921 119.162 135.699 119.312C135.477 119.462 135.418 119.763 135.568 119.985C135.717 120.207 136.019 120.266 136.241 120.116Z" fill="#FFA27C"/>
<path d="M127.891 117.085C128.114 116.935 128.173 116.634 128.023 116.412C127.873 116.19 127.571 116.131 127.349 116.281C127.127 116.431 127.068 116.733 127.218 116.955C127.367 117.177 127.669 117.235 127.891 117.085Z" fill="#FFA27C"/>
<path d="M126.751 118.604C126.974 118.454 127.033 118.152 126.883 117.93C126.733 117.708 126.431 117.65 126.209 117.8C125.987 117.95 125.928 118.251 126.077 118.474C126.227 118.696 126.529 118.754 126.751 118.604Z" fill="#FFA27C"/>
<path d="M127.888 122.398C128.11 122.248 128.169 121.946 128.019 121.724C127.869 121.502 127.568 121.444 127.345 121.594C127.123 121.744 127.064 122.045 127.214 122.267C127.364 122.489 127.665 122.548 127.888 122.398Z" fill="#FFA27C"/>
<path d="M127.129 120.501C127.352 120.351 127.411 120.049 127.261 119.827C127.111 119.605 126.809 119.547 126.587 119.697C126.365 119.847 126.306 120.148 126.456 120.37C126.605 120.593 126.907 120.651 127.129 120.501Z" fill="#FFA27C"/>
<path fill-rule="evenodd" clip-rule="evenodd" d="M63.3158 150.685L69.425 150.197C74.2864 149.809 78.2914 146.225 79.2156 141.436L79.7358 138.741C80.3666 135.472 78.952 132.147 76.1594 130.335C73.2697 128.46 69.6386 128.138 66.4643 129.477L64.6382 130.246L63.263 130.009C59.3231 129.328 55.2927 130.542 52.3841 133.285C49.6706 135.845 49.0538 139.925 50.8896 143.172L51.6272 144.477C53.9835 148.644 58.5435 151.066 63.3158 150.685Z" fill="#C72326"/>
<path fill-rule="evenodd" clip-rule="evenodd" d="M61.0718 129.823C58.3564 130.527 52.3658 133.128 51.5213 137.55C50.5847 142.455 55.3392 150.541 63.5895 150.535C63.9239 150.535 64.2137 150.555 64.4618 150.593L63.324 150.684C58.5461 151.066 53.9838 148.645 51.6272 144.477L50.8854 143.165C49.052 139.922 49.6706 135.845 52.3841 133.285C54.7542 131.05 57.8692 129.83 61.0718 129.823L61.0718 129.823Z" fill="#9F1517"/>
<path fill-rule="evenodd" clip-rule="evenodd" d="M63.7981 147.662L68.4294 147.276C72.0725 146.971 75.0724 144.289 75.7803 140.702L76.1804 138.675C76.6608 136.241 75.6071 133.76 73.5219 132.416C71.3609 131.023 68.6507 130.789 66.2832 131.792L64.8862 132.384L63.874 132.213C60.9093 131.714 57.8818 132.63 55.692 134.69C53.6509 136.61 53.1843 139.675 54.5619 142.116L55.0919 143.055C56.8446 146.159 60.2451 147.959 63.7981 147.662Z" fill="#FE5F41"/>
<path fill-rule="evenodd" clip-rule="evenodd" d="M64.3374 145.124L67.1783 144.909C69.4692 144.735 71.3577 143.044 71.7822 140.786L72.0201 139.521C72.3118 137.97 71.6406 136.395 70.3191 135.531C69.0626 134.709 67.3949 134.926 66.3896 136.041L64.8092 137.793L63.5723 136.75C62.2734 135.654 60.3585 135.708 59.124 136.876C57.8507 138.081 57.5631 139.998 58.4269 141.523L58.7909 142.166C59.9107 144.143 62.0717 145.296 64.3374 145.124Z" fill="#C72326"/>
<path fill-rule="evenodd" clip-rule="evenodd" d="M64.6455 135.247C65.2721 135.192 65.8245 135.656 65.8793 136.283L66.0872 138.656C67.2119 138.819 68.0627 139.45 68.1347 140.272C68.2066 141.095 67.4783 141.863 66.399 142.219L66.5733 144.215C66.6282 144.842 66.1646 145.394 65.538 145.449L65.537 145.449C64.9104 145.504 64.358 145.04 64.3032 144.414L64.119 142.308C63.1912 142.07 62.5227 141.494 62.4593 140.769C62.3958 140.044 62.9541 139.36 63.8265 138.965L63.6092 136.481C63.5544 135.855 64.0179 135.302 64.6445 135.247L64.6455 135.247Z" fill="#FFA27C"/>
<path d="M68.6389 137.562C68.8612 137.412 68.9201 137.11 68.7703 136.888C68.6205 136.666 68.3188 136.608 68.0965 136.758C67.8741 136.908 67.8153 137.209 67.9651 137.431C68.1148 137.653 68.4165 137.712 68.6389 137.562Z" fill="#FFA27C"/>
<path d="M69.7766 139.079C69.999 138.929 70.0578 138.627 69.908 138.405C69.7582 138.183 69.4566 138.125 69.2342 138.275C69.0118 138.425 68.953 138.726 69.1028 138.948C69.2526 139.17 69.5542 139.229 69.7766 139.079Z" fill="#FFA27C"/>
<path d="M68.6356 142.874C68.858 142.724 68.9168 142.422 68.7671 142.2C68.6173 141.978 68.3156 141.92 68.0932 142.07C67.8709 142.22 67.812 142.522 67.9618 142.744C68.1116 142.966 68.4133 143.024 68.6356 142.874Z" fill="#FFA27C"/>
<path d="M69.7757 140.976C69.998 140.826 70.0569 140.525 69.9071 140.302C69.7573 140.08 69.4556 140.022 69.2333 140.172C69.0109 140.322 68.9521 140.624 69.1018 140.846C69.2516 141.068 69.5533 141.126 69.7757 140.976Z" fill="#FFA27C"/>
<path d="M61.4256 137.946C61.648 137.796 61.7068 137.494 61.557 137.272C61.4073 137.05 61.1056 136.992 60.8832 137.142C60.6609 137.292 60.602 137.593 60.7518 137.815C60.9016 138.037 61.2033 138.096 61.4256 137.946Z" fill="#FFA27C"/>
<path d="M60.2856 139.464C60.508 139.314 60.5668 139.013 60.417 138.791C60.2672 138.569 59.9656 138.51 59.7432 138.66C59.5208 138.81 59.462 139.112 59.6118 139.334C59.7615 139.556 60.0632 139.614 60.2856 139.464Z" fill="#FFA27C"/>
<path d="M61.4219 143.258C61.6443 143.108 61.7031 142.807 61.5533 142.585C61.4036 142.362 61.1019 142.304 60.8795 142.454C60.6572 142.604 60.5983 142.906 60.7481 143.128C60.8979 143.35 61.1996 143.408 61.4219 143.258Z" fill="#FFA27C"/>
<path d="M60.6637 141.361C60.8861 141.211 60.9449 140.91 60.7952 140.688C60.6454 140.466 60.3437 140.407 60.1213 140.557C59.899 140.707 59.8401 141.009 59.9899 141.231C60.1397 141.453 60.4414 141.511 60.6637 141.361Z" fill="#FFA27C"/>
<path fill-rule="evenodd" clip-rule="evenodd" d="M63.5446 154.879L57.5568 144.989C55.9843 142.392 56.6552 139.024 59.1029 137.227C61.7455 135.288 63.0408 132.004 62.4338 128.783L62.2161 127.627C61.534 124.007 63.7674 120.476 67.3304 119.542C68.3341 119.278 69.3379 119.015 70.3417 118.752C70.5771 117.822 70.8126 116.892 71.048 115.962C71.9843 112.263 75.7418 110.024 79.4404 110.96C79.4728 110.968 79.5052 110.977 79.5375 110.985L81.002 111.379C83.8961 112.156 85.6119 115.133 84.8344 118.027C84.8286 118.048 84.8227 118.069 84.8167 118.091L84.5108 119.176C83.8097 121.664 84.84 124.316 87.0371 125.677C88.735 126.73 89.2583 128.959 88.206 130.657C88.0872 130.849 87.9506 131.029 87.7982 131.195L83.5832 135.794C81.5501 138.013 81.7004 141.459 83.9188 143.492C84.0275 143.592 84.1402 143.687 84.2566 143.778C85.5772 144.804 85.8157 146.706 84.7894 148.027C84.3999 148.528 83.8628 148.894 83.2539 149.074L63.5446 154.879Z" fill="#219E43"/>
<path fill-rule="evenodd" clip-rule="evenodd" d="M176.225 151.712C164.119 127.236 150.847 114.998 136.41 114.998C114.753 114.998 112.37 136.05 85.0502 136.05C57.7302 136.05 77.595 145.913 71.4398 157.03L176.225 151.712Z" fill="#FFAC32"/>
<path d="M104.213 134.608C108.51 133.451 112.748 131.334 116.925 128.255C123.191 123.637 129.849 119.169 135.511 119.169C141.174 119.169 153.718 121.503 169.861 149.028" stroke="white" stroke-width="3.43728"/>
<path opacity="0.390299" fill-rule="evenodd" clip-rule="evenodd" d="M63.7265 151.726C66.1315 150.501 67.5588 147.945 67.3404 145.254L66.4615 134.429C66.0462 129.313 63.714 124.543 59.9318 121.074L59.288 120.483C56.058 117.52 51.3276 116.875 47.4223 118.865C43.4422 120.893 40.9499 124.996 40.9847 129.463L40.9938 130.629C41.0354 135.972 43.5081 141.006 47.7118 144.304L56.2419 150.997C58.3821 152.677 61.3026 152.961 63.7265 151.726Z" fill="#35242E"/>
<path fill-rule="evenodd" clip-rule="evenodd" d="M63.7265 148.59C66.1315 147.364 67.5588 144.808 67.3404 142.118L66.4615 131.292C66.0462 126.177 63.714 121.407 59.9318 117.937L59.288 117.347C56.058 114.384 51.3276 113.739 47.4223 115.729C43.4422 117.757 40.9499 121.86 40.9847 126.326L40.9938 127.493C41.0354 132.836 43.5081 137.869 47.7118 141.168L56.2419 147.861C58.3821 149.54 61.3026 149.825 63.7265 148.59Z" fill="#FCF7F3"/>
<path fill-rule="evenodd" clip-rule="evenodd" d="M51.5809 114.602C54.3577 114.441 57.1511 115.387 59.2878 117.347L59.9317 117.937C63.7139 121.407 66.0461 126.177 66.4614 131.292L67.3402 142.118C67.5586 144.808 66.1313 147.364 63.7263 148.59C63.555 148.677 63.3812 148.757 63.2053 148.829C61.6584 148.836 60.1206 148.331 58.8554 147.338L50.3252 140.645C46.1215 137.347 43.6488 132.313 43.6072 126.97L43.5981 125.804C43.5633 121.337 46.0557 117.234 50.0357 115.206C50.498 114.971 50.9718 114.772 51.4533 114.61L51.5809 114.602Z" fill="#F1E7DA"/>
<path d="M52.3756 135.632C57.1389 135.632 61.0004 131.77 61.0004 127.007C61.0004 122.243 57.1389 118.382 52.3756 118.382C47.6122 118.382 43.7507 122.243 43.7507 127.007C43.7507 131.77 47.6122 135.632 52.3756 135.632Z" fill="#FFAB30"/>
<path fill-rule="evenodd" clip-rule="evenodd" d="M47.8903 119.638C46.5244 123.872 46.4913 127.267 47.791 129.823C49.0368 132.273 51.4802 134.06 55.1213 135.185C54.2589 135.475 53.3355 135.632 52.3756 135.632C47.6122 135.632 43.7507 131.77 43.7507 127.007C43.7507 123.886 45.408 121.153 47.8903 119.638Z" fill="#FECA52"/>
<path fill-rule="evenodd" clip-rule="evenodd" d="M47.6081 125.711C47.3565 126.128 46.8093 126.249 46.3858 125.982C45.9623 125.716 45.823 125.162 46.0746 124.746C48.0081 121.547 50.7367 120.406 54.0532 121.461C54.5271 121.612 54.8023 122.116 54.6679 122.586C54.5335 123.057 54.0404 123.316 53.5666 123.166C51.0611 122.368 49.144 123.17 47.6081 125.711Z" fill="#F9EFE5"/>
<path d="M103.324 140.155C107.622 138.998 111.859 136.881 116.037 133.802C122.303 129.184 128.961 124.716 134.623 124.716C140.285 124.716 152.83 127.05 168.973 154.575" stroke="white" stroke-width="3.43728"/>
<path d="M102.236 147.713C106.534 146.557 110.771 144.439 114.949 141.361C121.215 136.742 127.873 132.275 133.535 132.275C139.197 132.275 151.742 134.609 167.884 162.133" stroke="white" stroke-width="3.43728"/>
<path d="M102.236 153.112C106.534 151.956 110.771 149.839 114.949 146.76C121.215 142.141 127.873 137.674 133.535 137.674C139.197 137.674 151.742 140.008 167.884 167.532" stroke="white" stroke-width="3.43728"/>
<path d="M145.685 145.473C144.144 146.857 142.816 148.898 142.053 150.201C141.863 150.525 141.363 150.391 141.363 150.017V144.303L137.553 144.004L136.574 149.37C136.511 149.717 136.036 149.784 135.88 149.466C134.863 147.401 133.212 145.17 132.206 143.91L130.898 143.564L130.671 144.827C133.973 149.536 135.432 155.459 135.784 157.445C135.861 157.875 136.238 158.191 136.681 158.191H141.061C141.493 158.191 141.868 157.89 141.952 157.471C142.383 155.34 144.131 148.781 147.505 145.819L145.685 145.473Z" fill="#E6F5AD"/>
<path fill-rule="evenodd" clip-rule="evenodd" d="M146.41 145.572L145.663 145.429C144.118 146.82 142.786 148.87 142.021 150.18C141.831 150.505 141.33 150.371 141.33 149.995V152.285C141.33 152.565 141.559 152.792 141.842 152.792C142.077 152.792 142.276 152.632 142.337 152.407C143.091 149.599 145.105 147.026 146.41 145.572Z" fill="#D0E092"/>
<path d="M139.039 144.128L137.463 144.004L136.483 149.37C136.42 149.717 135.944 149.784 135.788 149.466C134.77 147.401 133.116 145.17 132.109 143.91L130.799 143.564L130.572 144.827C133.878 149.536 135.339 155.459 135.692 157.445C135.769 157.876 136.146 158.191 136.59 158.191H138.135L139.039 144.128Z" fill="#D0E092"/>
<path d="M130.671 144.801C133.963 149.52 135.416 155.454 135.768 157.443C135.844 157.875 136.22 158.191 136.662 158.191H136.747C135.898 149.855 132.119 145.126 130.857 143.76L130.671 144.801Z" fill="#C0D17D"/>
<path fill-rule="evenodd" clip-rule="evenodd" d="M147.268 136.136C147.031 136.136 146.8 136.158 146.572 136.189C145.79 133.315 143.134 131.195 139.967 131.195C137.833 131.195 135.928 132.157 134.673 133.664C134.181 133.521 133.662 133.441 133.123 133.441C130.404 133.441 128.154 135.394 127.726 137.952C125.635 138.139 123.997 139.868 123.997 141.976C123.997 144.208 125.835 146.018 128.104 146.018C129.614 146.018 130.931 145.213 131.644 144.017C132.115 144.147 132.61 144.221 133.123 144.221C134.178 144.221 135.16 143.923 135.996 143.414C137.117 144.202 138.485 144.671 139.967 144.671C141.116 144.671 142.198 144.389 143.149 143.896C144.055 145.178 145.561 146.018 147.268 146.018C150.04 146.018 152.287 143.806 152.287 141.077C152.287 138.348 150.04 136.136 147.268 136.136Z" fill="#219E43"/>
<path fill-rule="evenodd" clip-rule="evenodd" d="M142.996 143.706C142.797 143.397 142.443 143.229 142.074 143.278C141.825 143.312 141.571 143.33 141.313 143.33C139.192 143.33 137.335 142.231 136.29 140.582C136.108 140.295 135.778 140.14 135.435 140.17C135.269 140.185 135.102 140.193 134.933 140.193C131.959 140.193 129.503 138.029 129.08 135.22C128.383 135.972 127.897 136.922 127.721 137.971C125.445 138.175 123.705 140.207 124.038 142.563C124.278 144.266 125.645 145.664 127.368 145.956C129.175 146.263 130.809 145.404 131.634 144.022C132.104 144.151 132.598 144.226 133.111 144.226C134.164 144.226 135.145 143.928 135.98 143.42C137.099 144.206 138.465 144.674 139.946 144.674C141.093 144.674 142.173 144.393 143.123 143.901C143.123 143.901 143.055 143.797 142.996 143.706Z" fill="#95B53B"/>
<path fill-rule="evenodd" clip-rule="evenodd" d="M52.1847 151.712C61.5345 132.995 71.7844 123.637 82.9346 123.637C99.6598 123.637 101.5 139.735 122.6 139.735C143.699 139.735 159.194 143.21 163.948 151.712H52.1847Z" fill="#FDC952"/>
<path d="M64.7908 149.028C64.7908 149.028 74.9607 132.113 82.2225 132.113C89.4844 132.113 95.8914 139.319 104.232 144.173C112.573 149.028 139.089 148.131 139.089 150.877" stroke="white" stroke-width="3.43728"/>
<path d="M66.3294 154.588C66.3294 154.588 75.4492 138.782 84.1442 138.782C92.8392 138.782 95.1336 144.88 102.859 149.734C110.583 154.588 128.35 151.842 128.35 154.588" stroke="white" stroke-width="3.43728"/>
<path d="M66.3294 159.96C66.3294 159.96 75.4492 144.153 84.1442 144.153C92.8392 144.153 95.1336 150.251 102.859 155.106C110.583 159.96 128.35 157.213 128.35 159.96" stroke="white" stroke-width="3.43728"/>
<path d="M58.3511 150.586C67.3328 134.847 75.3535 126.978 82.4132 126.978C93.0027 126.978 97.8838 138.386 112.573 141.802C127.262 145.217 146.615 141.705 155.055 148.705" stroke="white" stroke-width="3.43728"/>
<path d="M112.573 135.515C114.676 135.515 116.381 133.822 116.381 131.735C116.381 129.648 114.676 127.956 112.573 127.956C110.47 127.956 108.765 129.648 108.765 131.735C108.765 133.822 110.47 135.515 112.573 135.515Z" fill="#FE5F41"/>
<path d="M152.832 141.993C154.935 141.993 156.64 140.301 156.64 138.214C156.64 136.127 154.935 134.435 152.832 134.435C150.729 134.435 149.024 136.127 149.024 138.214C149.024 140.301 150.729 141.993 152.832 141.993Z" fill="#FE5F41"/>
<path d="M67.9614 146.313C70.0647 146.313 71.7697 144.621 71.7697 142.533C71.7697 140.446 70.0647 138.754 67.9614 138.754C65.8582 138.754 64.1532 140.446 64.1532 142.533C64.1532 144.621 65.8582 146.313 67.9614 146.313Z" fill="#FE5F41"/>
<path d="M90.8112 138.754C92.9145 138.754 94.6195 137.062 94.6195 134.975C94.6195 132.887 92.9145 131.195 90.8112 131.195C88.708 131.195 87.0029 132.887 87.0029 134.975C87.0029 137.062 88.708 138.754 90.8112 138.754Z" fill="#FE5F41"/>
</g>
<path d="M178.555 84.619C170.31 88.1186 160.794 84.2813 157.299 76.048C153.804 67.8148 157.655 58.3034 165.899 54.8038C174.144 51.3042 183.66 55.1415 187.155 63.3748C190.65 71.608 186.8 81.1194 178.555 84.619Z" fill="#FE5F41"/>
<path fill-rule="evenodd" clip-rule="evenodd" d="M175.746 74.5328C176.098 74.3831 176.233 74.0048 176.296 73.9151C176.5 73.6289 176.413 73.61 176.848 73.25L178.244 72.6615C178.417 72.5878 178.499 72.3884 178.426 72.2163L175.607 65.5756C175.534 65.4032 175.334 65.3238 175.16 65.3975L173.315 66.1806C173.262 66.1756 173.078 66.1177 172.722 65.9484C172.096 65.6507 171.445 65.1601 170.839 64.7387C170.348 64.3981 169.885 64.0757 169.439 63.8375C168.828 63.5099 168.5 63.4342 168.183 63.3605C167.857 63.2858 167.891 63.2231 167.126 62.7997C165.901 62.1217 165.519 61.5218 165.148 60.9416C165.083 60.8389 165.015 60.7326 164.944 60.6282C164.663 60.2146 164.069 59.9154 163.561 60.1314C163.378 60.2088 163.225 60.345 163.106 60.5357C162.651 61.2669 162.873 62.7382 163.375 63.5648C163.892 64.4136 164.801 65.4085 165.362 65.67C165.849 65.8979 166.16 66.1966 166.33 66.7868C166.411 67.0677 166.005 67.2527 165.987 67.2609L163.422 68.3611C162.682 68.6825 161.378 69.5102 161.987 70.9454C162.265 71.5998 162.703 71.8937 163.113 71.9994C162.93 72.3862 162.845 72.8236 163.201 73.4338C163.546 74.0262 164.015 74.2684 164.457 74.3067C164.371 74.6577 164.4 75.1001 164.71 75.5849C165.008 76.0518 165.464 76.2718 165.851 76.3078C165.799 76.5983 165.854 76.9859 166.109 77.3685C166.707 78.2655 167.575 77.9635 167.945 77.8352L168.06 77.7951L175.746 74.5328Z" fill="#FCF7F3"/>
<path d="M163.113 71.9994C162.703 71.8938 162.264 71.5999 161.987 70.9454C161.378 69.5103 162.682 68.6824 163.422 68.3612L165.987 67.2606C166.004 67.2525 166.411 67.0678 166.329 66.7865C166.16 66.1963 165.849 65.8977 165.361 65.6697C164.801 65.4081 163.891 64.4134 163.375 63.5645C162.872 62.7379 162.65 61.2666 163.106 60.5354C163.225 60.3447 163.377 60.2085 163.561 60.1311C163.752 60.0501 163.955 60.0416 164.149 60.0852L164.142 60.0956C163.686 60.8268 163.909 62.2981 164.411 63.1247C164.928 63.9735 165.837 64.9684 166.398 65.2299C166.885 65.4579 167.196 65.7565 167.366 66.3467C167.446 66.6276 167.04 66.8126 167.023 66.8208L164.458 67.921C163.718 68.2424 162.414 69.0701 163.023 70.5053C163.3 71.1598 163.739 71.4536 164.149 71.5593C163.966 71.9461 163.881 72.3835 164.237 72.9937C164.582 73.5861 165.051 73.8283 165.493 73.8666C165.407 74.2176 165.436 74.66 165.746 75.1448C166.044 75.6117 166.499 75.8317 166.887 75.8677C166.835 76.1583 166.89 76.5458 167.145 76.9284C167.743 77.8254 168.611 77.5234 168.981 77.3951L169.096 77.355L168.06 77.7948L167.945 77.8349C167.575 77.9636 166.707 78.2654 166.109 77.3682C165.854 76.9858 165.799 76.598 165.851 76.3075C165.463 76.2715 165.008 76.0514 164.709 75.5846C164.4 75.0996 164.371 74.6571 164.457 74.3064C164.015 74.2678 163.546 74.0258 163.201 73.4335C162.845 72.8235 162.93 72.3861 163.113 71.9994ZM178.254 72.6544L178.244 72.6615L177.878 72.8158L177.884 72.8103L178.254 72.6544ZM163.113 71.9994C162.703 71.8938 162.264 71.5999 161.987 70.9454C161.378 69.5103 162.682 68.6824 163.422 68.3612L165.987 67.2606C166.004 67.2525 166.411 67.0678 166.329 66.7865C166.16 66.1963 165.849 65.8977 165.361 65.6697C164.801 65.4081 163.891 64.4134 163.375 63.5645C162.872 62.7379 162.65 61.2666 163.106 60.5354C163.225 60.3447 163.377 60.2085 163.561 60.1311C163.752 60.0501 163.955 60.0416 164.149 60.0852L164.142 60.0956C163.686 60.8268 163.909 62.2981 164.411 63.1247C164.928 63.9735 165.837 64.9684 166.398 65.2299C166.885 65.4579 167.196 65.7565 167.366 66.3467C167.446 66.6276 167.04 66.8126 167.023 66.8208L164.458 67.921C163.718 68.2424 162.414 69.0701 163.023 70.5053C163.3 71.1598 163.739 71.4536 164.149 71.5593C163.966 71.9461 163.881 72.3835 164.237 72.9937C164.582 73.5861 165.051 73.8283 165.493 73.8666C165.407 74.2176 165.436 74.66 165.746 75.1448C166.044 75.6117 166.499 75.8317 166.887 75.8677C166.835 76.1583 166.89 76.5458 167.145 76.9284C167.743 77.8254 168.611 77.5234 168.981 77.3951L169.096 77.355L168.06 77.7948L167.945 77.8349C167.575 77.9636 166.707 78.2654 166.109 77.3682C165.854 76.9858 165.799 76.598 165.851 76.3075C165.463 76.2715 165.008 76.0514 164.709 75.5846C164.4 75.0996 164.371 74.6571 164.457 74.3064C164.015 74.2678 163.546 74.0258 163.201 73.4335C162.845 72.8235 162.93 72.3861 163.113 71.9994ZM178.254 72.6544L178.244 72.6615L177.878 72.8158L177.884 72.8103L178.254 72.6544Z" fill="#DCDCDC"/>
<path d="M175.478 65.2739L174.436 65.7164L177.516 72.9728L178.559 72.5304L175.478 65.2739Z" fill="#D7D7D7"/>
<path fill-rule="evenodd" clip-rule="evenodd" d="M179.453 73.3713L183.275 71.7489C183.715 71.5621 183.921 71.0506 183.734 70.6094L181.739 62.7372C181.551 62.2953 181.041 62.0883 180.601 62.2751L175.637 64.382C175.197 64.5689 174.991 65.08 175.179 65.5219L178.314 72.9096C178.502 73.3507 179.013 73.5581 179.453 73.3713Z" fill="#219E43"/>
<path d="M179.407 69.7227C179.025 69.8847 178.847 70.3253 179.009 70.7068C179.171 71.0879 179.612 71.2655 179.993 71.1035C180.375 70.9415 180.553 70.5008 180.392 70.1199C180.23 69.7381 179.789 69.5605 179.407 69.7227Z" fill="white"/>
<path fill-rule="evenodd" clip-rule="evenodd" d="M178.469 72.9734L182.291 71.351C182.731 71.1643 182.937 70.6527 182.749 70.2115L180.755 62.3394L180.702 62.2437C181.117 62.1252 181.565 62.3288 181.739 62.7373L183.734 70.6094C183.921 71.0506 183.715 71.562 183.275 71.7489L179.453 73.3713C179.047 73.5437 178.584 73.3777 178.367 73.0051L178.469 72.9734Z" fill="#95B53B"/>
<path d="M179.993 71.1034C180.375 70.9414 180.553 70.5007 180.392 70.1199C180.349 70.019 180.285 69.9333 180.21 69.8634C180.495 69.8699 180.765 70.0389 180.884 70.3188C181.045 70.6999 180.867 71.1402 180.485 71.3024C180.204 71.4216 179.892 71.3558 179.682 71.1615C179.786 71.164 179.892 71.1465 179.993 71.1034Z" fill="#48639A"/>
<path d="M69.3688 49.3459C77.6134 52.8455 87.1301 49.0082 90.6249 40.7749C94.1197 32.5417 90.2692 23.0303 82.0246 19.5307C73.7799 16.031 64.2633 19.8684 60.7685 28.1016C57.2737 36.3349 61.1241 45.8462 69.3688 49.3459Z" fill="#FE5F41"/>
<path fill-rule="evenodd" clip-rule="evenodd" d="M72.1782 39.2597C71.8255 39.11 71.6906 38.7317 71.6273 38.6419C71.4239 38.3558 71.511 38.3369 71.0761 37.9769L69.68 37.3884C69.5063 37.3146 69.4247 37.1153 69.4977 36.9432L72.3165 30.3025C72.3897 30.1301 72.5897 30.0507 72.7634 30.1244L74.6083 30.9075C74.6618 30.9025 74.8462 30.8446 75.2014 30.6752C75.8278 30.3775 76.4783 29.887 77.0851 29.4656C77.5758 29.1249 78.0391 28.8025 78.4851 28.5644C79.0957 28.2368 79.4238 28.1611 79.7408 28.0873C80.0664 28.0126 80.0331 27.95 80.7976 27.5266C82.0229 26.8486 82.4052 26.2486 82.7753 25.6685C82.8409 25.5658 82.9084 25.4595 82.9797 25.3551C83.2608 24.9414 83.8549 24.6423 84.3628 24.8583C84.546 24.9356 84.6989 25.0719 84.8176 25.2626C85.2731 25.9938 85.0509 27.465 84.5484 28.2916C84.032 29.1404 83.1226 30.1353 82.562 30.3969C82.0747 30.6248 81.7637 30.9235 81.5939 31.5137C81.513 31.7946 81.9191 31.9795 81.9364 31.9878L84.5015 33.088C85.2414 33.4094 86.5457 34.2371 85.937 35.6723C85.6592 36.3267 85.2206 36.6206 84.8105 36.7263C84.9936 37.1131 85.0786 37.5504 84.7225 38.1607C84.3773 38.753 83.9085 38.9953 83.4663 39.0335C83.5525 39.3846 83.5236 39.827 83.2139 40.3117C82.9159 40.7786 82.4601 40.9986 82.0723 41.0346C82.1246 41.3252 82.0693 41.7128 81.8149 42.0953C81.2168 42.9923 80.3489 42.6904 79.9783 42.562L79.8636 42.522L72.1782 39.2597Z" fill="#FCF7F3"/>
<path d="M84.8107 36.7263C85.2208 36.6206 85.6594 36.3268 85.9372 35.6723C86.546 34.2372 85.2422 33.4093 84.5017 33.088L81.9368 31.9875C81.9194 31.9793 81.5132 31.7946 81.5943 31.5134C81.7641 30.9232 82.0751 30.6245 82.5623 30.3966C83.1229 30.135 84.0323 29.1402 84.5487 28.2913C85.0512 27.4647 85.2734 25.9935 84.818 25.2623C84.6992 25.0716 84.5463 24.9353 84.3631 24.858C84.1722 24.7769 83.9687 24.7685 83.7745 24.812L83.7819 24.8225C84.2373 25.5537 84.0151 27.0249 83.5126 27.8515C82.9962 28.7004 82.0868 29.6952 81.5262 29.9568C81.039 30.1847 80.728 30.4834 80.5582 31.0736C80.4772 31.3545 80.8834 31.5395 80.9007 31.5477L83.4658 32.6479C84.2057 32.9693 85.5099 33.797 84.9012 35.2322C84.6234 35.8866 84.1849 36.1805 83.7748 36.2862C83.9578 36.673 84.0428 37.1103 83.6868 37.7206C83.3415 38.3129 82.8728 38.5552 82.4305 38.5935C82.5167 38.9445 82.4879 39.3869 82.1781 39.8717C81.8801 40.3386 81.4244 40.5586 81.0365 40.5946C81.0889 40.8851 81.0336 41.2727 80.7791 41.6553C80.1811 42.5523 79.3131 42.2503 78.9425 42.1219L78.8278 42.0819L79.8639 42.5217L79.9786 42.5617C80.3491 42.6905 81.2167 42.9923 81.8152 42.095C82.07 41.7127 82.125 41.3249 82.0726 41.0344C82.4605 40.9983 82.9162 40.7783 83.2142 40.3115C83.5241 39.8264 83.5529 39.3839 83.4666 39.0333C83.9089 38.9946 84.3773 38.7527 84.7229 38.1604C85.0784 37.5504 84.9934 37.113 84.8107 36.7263ZM69.6698 37.3813L69.6798 37.3884L70.046 37.5426L70.0397 37.5371L69.6698 37.3813ZM84.8107 36.7263C85.2208 36.6206 85.6594 36.3268 85.9372 35.6723C86.546 34.2372 85.2422 33.4093 84.5017 33.088L81.9368 31.9875C81.9194 31.9793 81.5132 31.7946 81.5943 31.5134C81.7641 30.9232 82.0751 30.6245 82.5623 30.3966C83.1229 30.135 84.0323 29.1402 84.5487 28.2913C85.0512 27.4647 85.2734 25.9935 84.818 25.2623C84.6992 25.0716 84.5463 24.9353 84.3631 24.858C84.1722 24.7769 83.9687 24.7685 83.7745 24.812L83.7819 24.8225C84.2373 25.5537 84.0151 27.0249 83.5126 27.8515C82.9962 28.7004 82.0868 29.6952 81.5262 29.9568C81.039 30.1847 80.728 30.4834 80.5582 31.0736C80.4772 31.3545 80.8834 31.5395 80.9007 31.5477L83.4658 32.6479C84.2057 32.9693 85.5099 33.797 84.9012 35.2322C84.6234 35.8866 84.1849 36.1805 83.7748 36.2862C83.9578 36.673 84.0428 37.1103 83.6868 37.7206C83.3415 38.3129 82.8728 38.5552 82.4305 38.5935C82.5167 38.9445 82.4879 39.3869 82.1781 39.8717C81.8801 40.3386 81.4244 40.5586 81.0365 40.5946C81.0889 40.8851 81.0336 41.2727 80.7791 41.6553C80.1811 42.5523 79.3131 42.2503 78.9425 42.1219L78.8278 42.0819L79.8639 42.5217L79.9786 42.5617C80.3491 42.6905 81.2167 42.9923 81.8152 42.095C82.07 41.7127 82.125 41.3249 82.0726 41.0344C82.4605 40.9983 82.9162 40.7783 83.2142 40.3115C83.5241 39.8264 83.5529 39.3839 83.4666 39.0333C83.9089 38.9946 84.3773 38.7527 84.7229 38.1604C85.0784 37.5504 84.9934 37.113 84.8107 36.7263ZM69.6698 37.3813L69.6798 37.3884L70.046 37.5426L70.0397 37.5371L69.6698 37.3813Z" fill="#DCDCDC"/>
<path d="M72.4452 30.0008L73.4875 30.4432L70.4074 37.6997L69.3651 37.2572L72.4452 30.0008Z" fill="#D7D7D7"/>
<path fill-rule="evenodd" clip-rule="evenodd" d="M68.4709 38.0982L64.6487 36.4758C64.2087 36.289 64.0028 35.7775 64.1901 35.3362L66.185 27.4641C66.3725 27.0222 66.8831 26.8152 67.3231 27.0019L72.2867 29.1089C72.727 29.2958 72.9327 29.8068 72.7452 30.2487L69.6092 37.6365C69.4215 38.0776 68.9108 38.2849 68.4709 38.0982Z" fill="#219E43"/>
<path d="M68.5167 34.4496C68.8984 34.6116 69.0765 35.0521 68.9146 35.4336C68.7528 35.8148 68.3122 35.9924 67.9306 35.8304C67.549 35.6684 67.3705 35.2277 67.5321 34.8468C67.6942 34.465 68.1347 34.2874 68.5167 34.4496Z" fill="white"/>
<path fill-rule="evenodd" clip-rule="evenodd" d="M69.455 37.7003L65.6329 36.0779C65.1929 35.8911 64.987 35.3796 65.1743 34.9384L67.1691 27.0662L67.2215 26.9706C66.8067 26.852 66.3584 27.0557 66.185 27.4641L64.1902 35.3362C64.0029 35.7775 64.2084 36.2889 64.6488 36.4758L68.4709 38.0982C68.8771 38.2706 69.3401 38.1046 69.5565 37.732L69.455 37.7003Z" fill="#95B53B"/>
<path d="M67.9306 35.8303C67.549 35.6683 67.3705 35.2276 67.5321 34.8467C67.575 34.7458 67.6383 34.6601 67.7139 34.5903C67.4283 34.5968 67.1589 34.7658 67.0401 35.0457C66.8783 35.4268 67.0567 35.8671 67.4386 36.0292C67.7194 36.1484 68.0314 36.0827 68.2414 35.8884C68.1377 35.8909 68.0322 35.8734 67.9306 35.8303Z" fill="#48639A"/>
<path d="M33.6669 100.549C41.9115 104.048 51.4282 100.211 54.923 91.9778C58.4178 83.7446 54.5673 74.2332 46.3227 70.7336C38.078 67.2339 28.5614 71.0713 25.0666 79.3045C21.5718 87.5377 25.4223 97.0491 33.6669 100.549Z" fill="#FE5F41"/>
<path fill-rule="evenodd" clip-rule="evenodd" d="M36.4762 90.4626C36.1236 90.3129 35.9887 89.9346 35.9253 89.8448C35.7219 89.5586 35.8091 89.5398 35.3741 89.1798L33.978 88.5913C33.8044 88.5175 33.7227 88.3181 33.7957 88.146L36.6145 81.5054C36.6877 81.3329 36.8877 81.2535 37.0614 81.3273L38.9064 82.1104C38.9598 82.1054 39.1442 82.0474 39.4994 81.8781C40.1259 81.5804 40.7763 81.0899 41.3832 80.6685C41.8738 80.3278 42.3372 80.0054 42.7831 79.7673C43.3938 79.4396 43.7218 79.364 44.0388 79.2902C44.3644 79.2155 44.3311 79.1529 45.0957 78.7295C46.321 78.0514 46.7032 77.4515 47.0734 76.8713C47.1389 76.7687 47.2065 76.6624 47.2777 76.558C47.5588 76.1443 48.153 75.8452 48.6608 76.0611C48.844 76.1385 48.9969 76.2748 49.1156 76.4654C49.5711 77.1966 49.3489 78.6679 48.8464 79.4945C48.33 80.3433 47.4206 81.3382 46.86 81.5998C46.3728 81.8277 46.0618 82.1263 45.892 82.7166C45.811 82.9974 46.2172 83.1824 46.2345 83.1906L48.7996 84.2909C49.5395 84.6123 50.8437 85.44 50.235 86.8751C49.9572 87.5296 49.5186 87.8235 49.1086 87.9291C49.2916 88.316 49.3766 88.7533 49.0206 89.3635C48.6753 89.9559 48.2065 90.1982 47.7643 90.2364C47.8505 90.5875 47.8217 91.0299 47.5119 91.5146C47.2139 91.9815 46.7582 92.2015 46.3703 92.2375C46.4227 92.5281 46.3674 92.9157 46.1129 93.2982C45.5149 94.1952 44.6469 93.8932 44.2763 93.7649L44.1616 93.7248L36.4762 90.4626Z" fill="#FCF7F3"/>
<path d="M49.1088 87.9291C49.5188 87.8235 49.9574 87.5296 50.2352 86.8751C50.844 85.44 49.5402 84.6121 48.7998 84.2908L46.2348 83.1903C46.2175 83.1821 45.8112 82.9974 45.8923 82.7162C46.0621 82.126 46.3731 81.8273 46.8603 81.5994C47.4209 81.3378 48.3303 80.343 48.8467 79.4942C49.3493 78.6676 49.5714 77.1963 49.116 76.4651C48.9972 76.2744 48.8443 76.1381 48.6612 76.0608C48.4702 75.9797 48.2667 75.9713 48.0725 76.0148L48.0799 76.0253C48.5353 76.7565 48.3132 78.2278 47.8106 79.0544C47.2942 79.9032 46.3849 80.8981 45.8242 81.1596C45.337 81.3875 45.026 81.6862 44.8562 82.2764C44.7753 82.5573 45.1814 82.7423 45.1987 82.7505L47.7638 83.8507C48.5037 84.1721 49.808 84.9998 49.1992 86.435C48.9215 87.0894 48.4829 87.3833 48.0728 87.489C48.2559 87.8758 48.3409 88.3132 47.9848 88.9234C47.6396 89.5158 47.1708 89.758 46.7286 89.7963C46.8147 90.1473 46.7859 90.5897 46.4762 91.0745C46.1782 91.5414 45.7224 91.7614 45.3346 91.7974C45.3869 92.0879 45.3316 92.4755 45.0771 92.8581C44.4791 93.7551 43.6112 93.4531 43.2405 93.3248L43.1259 93.2847L44.162 93.7245L44.2766 93.7646C44.6471 93.8933 45.5147 94.1951 46.1132 93.2979C46.368 92.9155 46.423 92.5277 46.3707 92.2372C46.7585 92.2012 47.2142 91.9811 47.5123 91.5143C47.8221 91.0292 47.851 90.5868 47.7647 90.2361C48.207 90.1975 48.6753 89.9555 49.0209 89.3632C49.3765 88.7532 49.2915 88.3158 49.1088 87.9291ZM33.9678 88.5841L33.9779 88.5912L34.344 88.7455L34.3378 88.7399L33.9678 88.5841ZM49.1088 87.9291C49.5188 87.8235 49.9574 87.5296 50.2352 86.8751C50.844 85.44 49.5402 84.6121 48.7998 84.2908L46.2348 83.1903C46.2175 83.1821 45.8112 82.9974 45.8923 82.7162C46.0621 82.126 46.3731 81.8273 46.8603 81.5994C47.4209 81.3378 48.3303 80.343 48.8467 79.4942C49.3493 78.6676 49.5714 77.1963 49.116 76.4651C48.9972 76.2744 48.8443 76.1381 48.6612 76.0608C48.4702 75.9797 48.2667 75.9713 48.0725 76.0148L48.0799 76.0253C48.5353 76.7565 48.3132 78.2278 47.8106 79.0544C47.2942 79.9032 46.3849 80.8981 45.8242 81.1596C45.337 81.3875 45.026 81.6862 44.8562 82.2764C44.7753 82.5573 45.1814 82.7423 45.1987 82.7505L47.7638 83.8507C48.5037 84.1721 49.808 84.9998 49.1992 86.435C48.9215 87.0894 48.4829 87.3833 48.0728 87.489C48.2559 87.8758 48.3409 88.3132 47.9848 88.9234C47.6396 89.5158 47.1708 89.758 46.7286 89.7963C46.8147 90.1473 46.7859 90.5897 46.4762 91.0745C46.1782 91.5414 45.7224 91.7614 45.3346 91.7974C45.3869 92.0879 45.3316 92.4755 45.0771 92.8581C44.4791 93.7551 43.6112 93.4531 43.2405 93.3248L43.1259 93.2847L44.162 93.7245L44.2766 93.7646C44.6471 93.8933 45.5147 94.1951 46.1132 93.2979C46.368 92.9155 46.423 92.5277 46.3707 92.2372C46.7585 92.2012 47.2142 91.9811 47.5123 91.5143C47.8221 91.0292 47.851 90.5868 47.7647 90.2361C48.207 90.1975 48.6753 89.9555 49.0209 89.3632C49.3765 88.7532 49.2915 88.3158 49.1088 87.9291ZM33.9678 88.5841L33.9779 88.5912L34.344 88.7455L34.3378 88.7399L33.9678 88.5841Z" fill="#DCDCDC"/>
<path d="M36.7433 81.2037L37.7856 81.6461L34.7054 88.9025L33.6631 88.4601L36.7433 81.2037Z" fill="#D7D7D7"/>
<path fill-rule="evenodd" clip-rule="evenodd" d="M32.7689 89.3011L28.9468 87.6787C28.5067 87.4919 28.3008 86.9804 28.4881 86.5392L30.483 78.667C30.6706 78.2251 31.1811 78.0181 31.6211 78.2049L36.5847 80.3118C37.0251 80.4987 37.2308 81.0098 37.0432 81.4517L33.9073 88.8394C33.7196 89.2805 33.2088 89.4879 32.7689 89.3011Z" fill="#219E43"/>
<path d="M32.8148 85.6524C33.1964 85.8144 33.3746 86.255 33.2126 86.6365C33.0509 87.0176 32.6102 87.1952 32.2286 87.0333C31.8471 86.8713 31.6685 86.4305 31.8302 86.0497C31.9922 85.6678 32.4328 85.4903 32.8148 85.6524Z" fill="white"/>
<path fill-rule="evenodd" clip-rule="evenodd" d="M33.7531 88.9032L29.9309 87.2808C29.4909 87.094 29.285 86.5825 29.4723 86.1412L31.4672 78.2691L31.5195 78.1735C31.1048 78.0549 30.6564 78.2586 30.4831 78.667L28.4882 86.5391C28.3009 86.9804 28.5065 87.4918 28.9468 87.6787L32.769 89.3011C33.1751 89.4735 33.6381 89.3075 33.8546 88.9349L33.7531 88.9032Z" fill="#95B53B"/>
<path d="M32.2287 87.0332C31.847 86.8712 31.6685 86.4304 31.8302 86.0496C31.873 85.9487 31.9363 85.863 32.0119 85.7932C31.7264 85.7996 31.4569 85.9687 31.3381 86.2486C31.1764 86.6297 31.3547 87.07 31.7366 87.2321C32.0174 87.3513 32.3294 87.2856 32.5395 87.0913C32.4357 87.0937 32.3302 87.0763 32.2287 87.0332Z" fill="#48639A"/>
<path fill-rule="evenodd" clip-rule="evenodd" d="M97.9171 75.5359C97.8247 73.7381 98.7652 71.9917 100.449 71.1704C102.718 70.064 105.29 71.1903 106.613 73.3822C106.613 73.3822 107.001 73.8971 107.257 75.0405C107.605 76.5976 107.428 78.2179 106.837 79.6774L103.667 87.3243L95.783 85.0683C94.2687 84.6363 92.883 83.7775 91.8703 82.5446C91.1267 81.6392 90.9601 81.0162 90.9601 81.0162C90.0475 78.624 90.7433 75.9039 93.0118 74.7975C94.6961 73.976 96.5572 74.3563 97.9171 75.5359Z" fill="#FE5F41"/>
<path fill-rule="evenodd" clip-rule="evenodd" d="M127.823 23.1448C128.857 21.6713 130.673 20.8741 132.506 21.2637C134.975 21.7884 136.308 24.2594 136.001 26.8013C136.001 26.8013 135.99 27.4462 135.487 28.5045C134.803 29.9458 133.666 31.114 132.302 31.8998L125.096 35.974L120.272 29.3425C119.345 28.0699 118.782 26.54 118.743 24.945C118.714 23.7737 118.966 23.1802 118.966 23.1802C119.72 20.7333 121.943 19.0182 124.412 19.5429C126.245 19.9325 127.477 21.378 127.823 23.1448Z" fill="#219E43"/>
<path fill-rule="evenodd" clip-rule="evenodd" d="M32.3687 42.2075C32.3377 40.4078 33.3374 38.6964 35.0487 37.9359C37.354 36.9113 39.8863 38.1286 41.1343 40.3659C41.1343 40.3659 41.505 40.8942 41.7214 42.0458C42.0163 43.614 41.7845 45.2268 41.1433 46.664L37.7138 54.1916L29.9103 51.656C28.4114 51.1704 27.0556 50.2628 26.0854 48.9947C25.3729 48.0636 25.2276 47.4351 25.2276 47.4351C24.3971 45.0122 25.1853 42.3192 27.4906 41.2946C29.2022 40.5339 31.0496 40.9803 32.3687 42.2075Z" fill="#219E43"/>
</svg>
