<svg width="248" height="200" viewBox="0 0 248 200" fill="none" xmlns="http://www.w3.org/2000/svg">
<path fill-rule="evenodd" clip-rule="evenodd" d="M41.6875 89.0337C21.6808 129.923 50.503 176.323 114.567 176.695C178.631 177.067 251.904 164.917 237.008 122.462C222.112 80.008 166.15 122.228 136.05 88.3648C105.949 54.5022 61.6942 48.1449 41.6875 89.0337Z" fill="#E9F5EC"/>
<path fill-rule="evenodd" clip-rule="evenodd" d="M25.418 113.488L31.5626 111.868C33.0163 111.485 33.9402 110.059 33.6961 108.575C33.4337 106.981 34.125 105.38 35.4653 104.478L36.127 104.033C37.7189 102.962 38.1663 100.816 37.1354 99.1981C36.8933 98.818 36.6512 98.438 36.4091 98.0579C36.6675 97.6432 36.926 97.2285 37.1844 96.8138C38.1485 95.2668 37.6759 93.2312 36.1289 92.2671C36.0463 92.2156 35.9614 92.1678 35.8746 92.1238L35.1662 91.765C33.7563 91.051 32.0342 91.5569 31.2345 92.9201L30.9704 93.3702C30.2751 94.5557 28.9111 95.1779 27.56 94.9261C26.4769 94.7243 25.4352 95.4387 25.2333 96.5218C25.2166 96.6118 25.206 96.7029 25.2017 96.7944L25.0713 99.5919C24.994 101.249 23.5878 102.53 21.9306 102.453C21.8934 102.451 21.8563 102.449 21.8192 102.445C20.9351 102.371 20.1581 103.028 20.0839 103.912C20.056 104.245 20.1326 104.579 20.3031 104.866L25.418 113.488Z" fill="#B0DDBB"/>
<path fill-rule="evenodd" clip-rule="evenodd" d="M30.7775 190.374L23.7405 113.799L32.2151 99.6553" fill="#B0DDBB"/>
<path d="M30.7775 190.374L23.7405 113.799L32.2151 99.6553" stroke="#18233D" stroke-linecap="round"/>
<path fill-rule="evenodd" clip-rule="evenodd" d="M27.383 130.308V124.929C27.383 123.487 28.4799 122.282 29.9156 122.146C31.4657 121.999 32.7973 120.983 33.3479 119.527L33.5349 119.033C34.1492 117.408 35.9061 116.525 37.576 117.003C38.0537 117.139 38.5313 117.276 39.009 117.412C39.3383 117.089 39.6676 116.766 39.9969 116.443C41.2917 115.174 43.3704 115.194 44.6398 116.489C44.6414 116.491 44.6431 116.493 44.6447 116.494L45.1287 116.99C46.1065 117.991 46.0873 119.596 45.0858 120.574C45.071 120.588 45.056 120.603 45.0409 120.617L44.6351 120.994C43.7507 121.816 43.5231 123.127 44.0787 124.199C44.5071 125.026 44.1841 126.044 43.3572 126.472C43.2619 126.522 43.1621 126.562 43.0592 126.592L40.1568 127.45C38.81 127.848 38.0407 129.262 38.4387 130.609C38.4587 130.677 38.4816 130.744 38.5073 130.81C38.7923 131.543 38.429 132.368 37.696 132.653C37.4197 132.761 37.1168 132.779 36.8294 132.706L27.383 130.308Z" fill="#B0DDBB"/>
<path d="M25.2957 131.601L39.1354 121.066" stroke="#18233D" stroke-linecap="round"/>
<path fill-rule="evenodd" clip-rule="evenodd" d="M22.1054 117.367V111.988C22.1054 110.546 21.0085 109.341 19.5728 109.205C18.0227 109.059 16.6911 108.043 16.1405 106.586L15.9535 106.092C15.3392 104.467 13.5823 103.585 11.9124 104.062C11.4347 104.198 10.9571 104.335 10.4794 104.471C10.1501 104.148 9.8208 103.825 9.49149 103.503C8.19674 102.233 6.11803 102.254 4.84856 103.548C4.84695 103.55 4.84535 103.552 4.84374 103.553L4.35973 104.049C3.38186 105.051 3.40106 106.655 4.4026 107.633C4.4174 107.647 4.43236 107.662 4.4475 107.676L4.85329 108.053C5.73767 108.875 5.96526 110.186 5.40974 111.258C4.98126 112.085 5.30428 113.103 6.13124 113.532C6.22652 113.581 6.3263 113.621 6.42922 113.651L9.33159 114.509C10.6784 114.907 11.4477 116.321 11.0497 117.668C11.0297 117.736 11.0068 117.803 10.9811 117.869C10.6961 118.602 11.0594 119.428 11.7924 119.713C12.0687 119.82 12.3716 119.839 12.659 119.766L22.1054 117.367Z" fill="#B0DDBB"/>
<path d="M24.1925 118.66L10.3529 108.125" stroke="#18233D" stroke-linecap="round"/>
<path fill-rule="evenodd" clip-rule="evenodd" d="M28.9514 156.053V149.33C28.9514 147.527 30.3225 146.02 32.1171 145.851C34.0547 145.668 35.7191 144.398 36.4075 142.577L36.6412 141.959C37.409 139.928 39.6052 138.825 41.6926 139.422C42.2897 139.592 42.8867 139.763 43.4838 139.933C43.8954 139.53 44.3071 139.126 44.7187 138.723C46.3372 137.136 48.9355 137.161 50.5224 138.78C50.5244 138.782 50.5264 138.784 50.5284 138.786L51.1334 139.406C52.3558 140.658 52.3318 142.663 51.0798 143.886C51.0613 143.904 51.0426 143.922 51.0237 143.939L50.5165 144.411C49.411 145.439 49.1265 147.077 49.8209 148.418C50.3565 149.451 49.9527 150.723 48.919 151.259C48.7999 151.321 48.6752 151.371 48.5465 151.409L44.9186 152.481C43.235 152.978 42.2735 154.746 42.7709 156.43C42.796 156.515 42.8246 156.599 42.8567 156.681C43.2129 157.597 42.7589 158.629 41.8426 158.985C41.4972 159.12 41.1185 159.143 40.7594 159.052L28.9514 156.053Z" fill="#B0DDBB"/>
<path fill-rule="evenodd" clip-rule="evenodd" d="M23.0835 146.43V139.706C23.0835 137.904 21.7123 136.397 19.9177 136.227C17.9801 136.044 16.3157 134.774 15.6274 132.954L15.3936 132.336C14.6258 130.305 12.4297 129.202 10.3422 129.798C9.74517 129.969 9.1481 130.139 8.55102 130.31C8.13939 129.906 7.72776 129.503 7.31612 129.099C5.69768 127.512 3.0993 127.538 1.51247 129.157C1.51045 129.159 1.50844 129.161 1.50643 129.163L0.901418 129.782C-0.320916 131.034 -0.29692 133.04 0.955015 134.262C0.973504 134.28 0.992212 134.298 1.01114 134.316L1.51837 134.787C2.62385 135.815 2.90834 137.454 2.21393 138.794C1.67833 139.828 2.08211 141.1 3.1158 141.636C3.23491 141.697 3.35964 141.748 3.48829 141.786L7.11625 142.857C8.79982 143.355 9.76137 145.123 9.26393 146.807C9.23886 146.891 9.21025 146.975 9.17818 147.058C8.82192 147.974 9.27595 149.006 10.1923 149.362C10.5376 149.496 10.9163 149.519 11.2755 149.428L23.0835 146.43Z" fill="#B0DDBB"/>
<path d="M26.8498 149.293L5.35426 133.207" stroke="#18233D" stroke-linecap="round"/>
<path fill-rule="evenodd" clip-rule="evenodd" d="M25.3366 172.93V166.206C25.3366 164.404 23.9655 162.897 22.1709 162.727C20.2333 162.544 18.5688 161.274 17.8805 159.454L17.6468 158.836C16.879 156.805 14.6828 155.702 12.5954 156.298C11.9983 156.469 11.4012 156.639 10.8042 156.81C10.3925 156.406 9.9809 156.003 9.56927 155.599C7.95083 154.012 5.35244 154.038 3.76561 155.656C3.7636 155.658 3.76159 155.661 3.75958 155.663L3.15456 156.282C1.93223 157.534 1.95622 159.54 3.20816 160.762C3.22665 160.78 3.24536 160.798 3.26428 160.816L3.77151 161.287C4.87699 162.315 5.16148 163.954 4.46707 165.294C3.93147 166.328 4.33525 167.6 5.36895 168.135C5.48806 168.197 5.61278 168.247 5.74143 168.285L9.36939 169.357C11.053 169.855 12.0145 171.623 11.5171 173.306C11.492 173.391 11.4634 173.475 11.4313 173.558C11.0751 174.474 11.5291 175.505 12.4454 175.862C12.7908 175.996 13.1694 176.019 13.5286 175.928L25.3366 172.93Z" fill="#B0DDBB"/>
<path d="M29.103 175.793L7.60741 159.707" stroke="#18233D" stroke-linecap="round"/>
<path d="M27.3824 156.707L46.9425 142.532" stroke="#18233D" stroke-linecap="round"/>
<path fill-rule="evenodd" clip-rule="evenodd" d="M111.813 37.1951C120.854 59.8039 172.803 68.8973 180.729 53.8947C188.654 38.8921 164.562 36.5178 150.92 15.9903C137.278 -4.5371 102.772 14.5864 111.813 37.1951Z" fill="#E9F5EC"/>
<path fill-rule="evenodd" clip-rule="evenodd" d="M247.133 199.964C247.133 199.964 39.1993 198.717 27.4522 198.717C15.705 198.717 11.0021 186.866 22.0713 180.005C33.1404 173.145 37.1419 185.267 41.6882 187.846C46.2344 190.424 50.0965 180.021 67.3701 187.846C70.8467 189.42 82.7312 194.316 95.4642 195.598C145.995 200.688 247.133 199.964 247.133 199.964Z" fill="#E9F5EC"/>
<path d="M211.817 197.652C222.293 197.652 230.784 189.169 230.784 178.706C230.784 168.243 222.293 159.761 211.817 159.761C201.342 159.761 192.85 168.243 192.85 178.706C192.85 189.169 201.342 197.652 211.817 197.652Z" fill="#2F245B"/>
<path d="M211.817 188.849C217.848 188.849 222.738 183.965 222.738 177.941C222.738 171.916 217.848 167.033 211.817 167.033C205.786 167.033 200.897 171.916 200.897 177.941C200.897 183.965 205.786 188.849 211.817 188.849Z" fill="#E5E5E5"/>
<path fill-rule="evenodd" clip-rule="evenodd" d="M204.955 172.869L206.643 171.972C207.24 171.655 207.982 171.882 208.3 172.479L212.953 181.219C213.271 181.817 213.045 182.559 212.447 182.878C212.447 182.878 212.446 182.878 212.446 182.878L210.758 183.774C210.161 184.092 209.419 183.865 209.101 183.268L204.448 174.528C204.13 173.93 204.356 173.187 204.954 172.869C204.954 172.869 204.955 172.869 204.955 172.869Z" fill="white"/>
<path fill-rule="evenodd" clip-rule="evenodd" d="M199.141 165.558L204.199 162.871C204.398 162.766 204.646 162.841 204.752 163.04L212.563 177.714C212.669 177.913 212.594 178.16 212.394 178.267C212.394 178.267 212.394 178.267 212.394 178.267L207.336 180.953C207.137 181.059 206.889 180.983 206.783 180.784L198.972 166.111C198.866 165.911 198.941 165.664 199.141 165.558C199.141 165.558 199.141 165.558 199.141 165.558Z" fill="white"/>
<path fill-rule="evenodd" clip-rule="evenodd" d="M206.415 163.423L210.189 161.418C210.388 161.313 210.635 161.388 210.741 161.587L216.504 172.412C216.61 172.611 216.534 172.859 216.335 172.965C216.335 172.965 216.335 172.965 216.335 172.965L212.561 174.969C212.362 175.075 212.114 174.999 212.008 174.8L206.246 163.976C206.14 163.776 206.215 163.529 206.414 163.423C206.415 163.423 206.415 163.423 206.415 163.423Z" fill="white"/>
<path d="M96.0989 199.183C106.574 199.183 115.066 190.7 115.066 180.237C115.066 169.774 106.574 161.292 96.0989 161.292C85.6237 161.292 77.1318 169.774 77.1318 180.237C77.1318 190.7 85.6237 199.183 96.0989 199.183Z" fill="#2F245B"/>
<path d="M96.8653 191.145C102.896 191.145 107.786 186.261 107.786 180.237C107.786 174.213 102.896 169.329 96.8653 169.329C90.8341 169.329 85.9448 174.213 85.9448 180.237C85.9448 186.261 90.8341 191.145 96.8653 191.145Z" fill="#E5E5E5"/>
<path opacity="0.307501" fill-rule="evenodd" clip-rule="evenodd" d="M78.7931 188.002C77.7257 185.633 77.1318 183.004 77.1318 180.237C77.1318 179.842 77.144 179.449 77.1679 179.059L115.006 178.72C115.046 179.22 115.066 179.726 115.066 180.237C115.066 183.004 114.472 185.633 113.405 188.002H78.7931H78.7931Z" fill="#271B1F"/>
<path fill-rule="evenodd" clip-rule="evenodd" d="M145.831 95.3458C145.831 95.3458 169.026 90.1027 172.673 90.1027C176.319 90.1027 178.244 90.5638 178.649 92.0553C178.919 93.0496 176.927 94.8321 172.673 97.4027L141.505 105.029C144.389 98.5737 145.831 95.3458 145.831 95.3458Z" fill="url(#paint0_linear_154_5319)"/>
<path opacity="0.307501" fill-rule="evenodd" clip-rule="evenodd" d="M192.85 178.706C200.198 179.846 205.482 178.379 208.701 174.305C211.92 170.231 217.147 167.086 224.382 164.871C219.258 160.321 214.387 159.104 209.77 161.222C206.473 162.734 198.193 162.953 195.149 168.564C193.617 171.389 192.85 174.77 192.85 178.706Z" fill="#271B1F"/>
<path fill-rule="evenodd" clip-rule="evenodd" d="M187.869 173.557C189.845 158.837 196.114 150.558 206.675 148.719C217.237 146.879 225.018 150.807 230.018 160.5C223.41 158.162 216.385 160.273 208.941 166.831C201.497 173.389 194.473 175.631 187.869 173.557Z" fill="#A9F5A7"/>
<path fill-rule="evenodd" clip-rule="evenodd" d="M204.306 149.26L205.417 149.642C200.1 158.174 198.327 163.461 200.1 165.502C202.758 168.564 214.691 158.613 221.162 159.952C221.179 159.956 221.195 159.959 221.211 159.963C217.256 160.819 213.166 163.109 208.941 166.831C201.497 173.389 194.473 175.631 187.869 173.557C189.692 159.974 195.171 151.875 204.306 149.26Z" fill="#4EBB64"/>
<path fill-rule="evenodd" clip-rule="evenodd" d="M165.87 95.9802C165.059 97.5203 165.059 98.9951 165.87 100.405C167.087 102.519 168.726 100.867 171.223 100.405C172.888 100.096 174.749 99.7964 176.807 99.505L179.89 106.943L184.97 104.367L183.829 99.505C188.279 99.505 191.105 99.505 192.305 99.505C194.106 99.505 195.916 95.6022 195.916 90.2023C195.916 84.8023 193.365 83.9792 192.305 83.9792C191.246 83.9792 185.364 83.8549 181.086 88.7001C178.233 91.9303 173.161 94.357 165.87 95.9802Z" fill="#37B152"/>
<path fill-rule="evenodd" clip-rule="evenodd" d="M176.757 99.6711H183.736L184.42 102.443L179.1 105.795L176.757 99.6711Z" fill="#95B53B"/>
<path fill-rule="evenodd" clip-rule="evenodd" d="M192.807 83.9789C193.955 84.1769 195.916 85.3576 195.916 90.2045C195.916 94.7958 194.668 98.311 193.232 99.2884C192.211 97.3585 191.701 95.0313 191.701 92.3069C191.701 89.2402 192.069 86.4642 192.807 83.9789Z" fill="white"/>
<path fill-rule="evenodd" clip-rule="evenodd" d="M78.2813 155.168V144.685C78.2813 142.654 79.9282 141.007 81.9598 141.007H92.4588L78.2813 155.168Z" fill="#3F377C"/>
<path fill-rule="evenodd" clip-rule="evenodd" d="M65.6366 177.334C70.6236 160.316 80.6409 146.57 95.6885 136.096H151.962V141.972C151.962 143.335 151.116 144.555 149.84 145.034C141.025 148.338 136.023 152.982 134.836 158.966C133.556 165.415 135.283 169.908 140.017 172.446H181.463C183.285 172.446 184.927 171.346 185.621 169.661L189.674 159.813C192.986 151.766 192.76 142.696 189.052 134.823L177.327 109.927C176.627 108.441 177.138 106.666 178.521 105.78L184.475 101.968C188.943 109.961 192.409 117.44 194.873 124.406C198.568 134.854 198.6 140.508 205.495 142.398V149.317C202.224 151.343 199.1 155.189 196.121 160.857C191.652 169.358 190.209 180.046 176.103 180.046C159.495 180.046 142.886 180.046 126.278 180.046C123.759 180.046 121.336 179.075 119.514 177.334H65.6366Z" fill="#219E43"/>
<path d="M189.569 114.824C189.128 113.785 187.928 113.3 186.889 113.741C185.85 114.182 185.365 115.382 185.806 116.421L188.681 123.193C189.122 124.232 190.322 124.717 191.361 124.276C192.4 123.835 192.884 122.635 192.443 121.596L189.569 114.824Z" fill="#E6DCF5"/>
<path d="M205.417 149.642C206.185 149.642 206.807 148.01 206.807 145.998C206.807 143.985 206.185 142.353 205.417 142.353C204.65 142.353 204.027 143.985 204.027 145.998C204.027 148.01 204.65 149.642 205.417 149.642Z" fill="#E6DCF5"/>
<path fill-rule="evenodd" clip-rule="evenodd" d="M95.529 136.031L93.5556 125.699C93.0898 123.26 94.6893 120.905 97.1283 120.439C97.5119 120.366 97.9035 120.343 98.2931 120.371C125.035 122.288 139.725 123.556 142.365 124.176C146.604 125.171 155.286 128.676 155.286 131.782C155.286 134.888 155.686 136.031 152.139 136.031C149.775 136.031 130.905 136.031 95.529 136.031Z" fill="#2F245B"/>
<path fill-rule="evenodd" clip-rule="evenodd" d="M114.743 121.62C117.426 126.165 121.384 129.267 126.616 130.925C135.319 133.683 145.351 129.519 149.552 136.031H95.6233L94.519 130.248C93.6886 125.9 96.5256 121.699 100.856 120.865C101.541 120.733 102.24 120.692 102.935 120.743C107.217 121.054 111.153 121.346 114.743 121.62Z" fill="#2F245B"/>
<path d="M113.687 160.526H83.4925C79.768 160.526 76.7487 163.546 76.7487 167.27V177.895C76.7487 181.619 79.768 184.639 83.4925 184.639H113.687C117.411 184.639 120.43 181.619 120.43 177.895V167.27C120.43 163.546 117.411 160.526 113.687 160.526Z" fill="#3F377C"/>
<path fill-rule="evenodd" clip-rule="evenodd" d="M124.814 107.326C120.605 114.329 121.781 120.009 128.341 124.368C134.902 128.726 147.786 129.487 166.993 126.652L153.294 165.229L166.263 168.564L182.745 128.89C184.292 125.166 183.842 120.911 181.549 117.594C179.218 114.22 175.513 112.051 171.431 111.671L124.814 107.326Z" fill="#342A66"/>
<path fill-rule="evenodd" clip-rule="evenodd" d="M119.585 177.367C131.128 164.28 133.741 153.576 127.426 145.254C117.954 132.77 92.8772 141.357 79.2569 152.441C70.1767 159.83 65.6366 168.139 65.6366 177.367H119.585Z" fill="#76E17E"/>
<path fill-rule="evenodd" clip-rule="evenodd" d="M111.617 177.367H65.6366C65.6366 168.113 70.1657 159.781 79.224 152.371C83.9043 148.542 89.9409 145.011 96.2301 142.538C85.3284 152.394 83.1022 160.842 89.5517 167.881C94.5934 173.385 101.949 176.546 111.617 177.367Z" fill="#59C56B"/>
<path fill-rule="evenodd" clip-rule="evenodd" d="M179.145 105.412L192.573 134.331C196.06 141.86 196.005 150.531 192.422 158.015L183.484 176.575C182.462 178.697 180.316 180.046 177.961 180.046H177.618L189.105 156.457C192.222 149.944 192.271 142.399 189.237 135.848L177.516 110.54C176.648 108.667 177.355 106.441 179.145 105.412Z" fill="#3DB456"/>
<path fill-rule="evenodd" clip-rule="evenodd" d="M61.575 87.8063H99.2282C100.357 87.8063 101.272 88.7213 101.272 89.8499V118.295C101.272 119.424 100.357 120.339 99.2282 120.339H61.575C60.2206 120.339 59.1227 119.241 59.1227 117.887V90.2586C59.1227 88.9043 60.2206 87.8063 61.575 87.8063Z" fill="#219E43"/>
<path fill-rule="evenodd" clip-rule="evenodd" d="M64.9999 87.8063C71.9933 90.7646 75.9591 95.6995 76.8972 102.611C77.8354 109.523 83.9167 115.432 95.141 120.339H61.575C60.2206 120.339 59.1227 119.241 59.1227 117.887V90.2586C59.1227 88.9043 60.2206 87.8063 61.575 87.8063H64.9999Z" fill="#219E43"/>
<path d="M80.0354 115.071C86.1301 115.071 91.0708 110.13 91.0708 104.035C91.0708 97.9407 86.1301 93 80.0354 93C73.9407 93 69 97.9407 69 104.035C69 110.13 73.9407 115.071 80.0354 115.071Z" fill="white"/>
<path d="M82.6595 98C82.6595 98 80.8313 99.6881 80.9023 101.516C80.9732 103.344 81.5008 104.188 81.5008 104.856C81.5008 105.524 81.1133 109.482 81.4298 109.577C81.7463 109.671 82.8705 110.059 82.9415 109.391C83.0124 108.723 82.6595 98 82.6595 98Z" fill="#219E43"/>
<path d="M82.8214 106.086H81.4843C81.3843 106.086 81.3024 106.004 81.3024 105.904V104.925C81.3024 104.825 81.3843 104.743 81.4843 104.743H82.8214C82.9214 104.743 83.0033 104.825 83.0033 104.925V105.904C83.0033 106.004 82.9214 106.086 82.8214 106.086Z" fill="#219E43"/>
<path d="M78.0736 109.391C77.8972 109.708 76.9822 109.742 76.6675 109.602C76.4001 109.482 76.7621 104.672 76.8803 103.203C76.9021 102.937 76.9149 102.781 76.9149 102.781H77.7225C77.7225 102.781 77.7353 102.937 77.7571 103.203C77.8699 104.618 78.2228 109.124 78.0736 109.391Z" fill="#219E43"/>
<path d="M78.4794 98H78.4339C78.3648 98 78.3084 98.0564 78.3084 98.1273C78.3193 98.6658 78.3557 100.754 78.3411 101.06C78.3229 101.411 77.9537 101.447 77.9191 101.342C77.8864 101.249 77.8027 98.7622 77.7827 98.2019C77.7809 98.1382 77.7299 98.0873 77.6663 98.0819C77.5935 98.0764 77.5316 98.1328 77.5316 98.2056C77.5298 98.7731 77.5207 100.967 77.4443 101.165C77.3934 101.298 77.3406 101.358 77.3061 101.387C77.3043 101.389 77.3043 101.391 77.3024 101.393C77.3006 101.391 77.3006 101.389 77.2988 101.387C77.2642 101.358 77.2115 101.296 77.1606 101.165C77.0842 100.967 77.0751 98.7731 77.0732 98.2056C77.0732 98.1328 77.0114 98.0764 76.9386 98.0819C76.875 98.0873 76.824 98.1382 76.8222 98.2019C76.804 98.7622 76.7185 101.249 76.6858 101.342C76.6494 101.447 76.2801 101.413 76.2638 101.06C76.2492 100.754 76.2856 98.6676 76.2965 98.1273C76.2983 98.0582 76.2419 98 76.171 98H76.1255C76.0564 98 76 98.0564 76 98.1255V102.046C76 102.064 76.0036 102.08 76.0109 102.097C76.0673 102.222 76.3529 102.781 76.915 102.781H77.2169C77.2497 102.781 77.2806 102.768 77.3024 102.746C77.3243 102.768 77.3552 102.781 77.3879 102.781H77.6899C78.252 102.781 78.5358 102.222 78.594 102.097C78.6013 102.08 78.6049 102.064 78.6049 102.046V98.1237C78.6031 98.0546 78.5485 98 78.4794 98Z" fill="#219E43"/>
<path d="M69.0852 123.018V131.944C69.0852 134.201 70.9151 136.031 73.1724 136.031H99.7391" stroke="#18233D" stroke-width="3" stroke-linecap="round"/>
<path d="M90.9261 123.018V131.944C90.9261 134.201 92.756 136.031 95.0133 136.031H154.15" stroke="#18233D" stroke-width="3" stroke-linecap="round"/>
<path d="M65.6366 123.018H95.141" stroke="#18233D" stroke-width="3" stroke-linecap="round"/>
<path fill-rule="evenodd" clip-rule="evenodd" d="M173.006 101.125C173.92 99.7673 173.92 98.2539 173.006 96.585C172.091 94.9162 170.96 94.3528 169.612 94.895C163.773 96.2418 160.644 97.2469 160.226 97.9104C159.598 98.9057 159.598 103.116 162.717 103.116C164.38 103.116 166.219 102.52 169.612 101.671C170.177 101.529 171.308 101.347 173.006 101.125Z" fill="#706DA5"/>
<path fill-rule="evenodd" clip-rule="evenodd" d="M157.215 52.7793C155.767 61.8121 154.589 66.6648 153.682 67.3374C152.775 68.01 151.45 67.7505 149.707 66.5588L147.901 68.6695L142.654 67.3374L146.413 59.8561C145.407 58.8922 144.903 58.0031 144.903 57.1888C144.903 55.9674 145.523 55.102 147.391 55.9674C147.986 56.2429 148.094 57.3597 148.366 57.6792C148.946 58.3631 149.222 58.0404 149.222 56.6127C149.222 54.5181 149.88 52.9757 151.781 52.4214C153.049 52.0518 154.86 52.1711 157.215 52.7793Z" fill="#FBB09F"/>
<path opacity="0.800851" fill-rule="evenodd" clip-rule="evenodd" d="M158.365 56.1563C157.431 61.4366 156.502 64.0767 155.579 64.0767C154.656 64.0767 152.519 62.7566 149.168 60.1165L151.503 55.2737L158.365 56.1563Z" fill="url(#paint1_linear_154_5319)"/>
<path fill-rule="evenodd" clip-rule="evenodd" d="M155 165.885C153.575 170.152 152.658 173.252 152.248 175.185C151.634 178.084 170.998 177.258 173.252 177.258C175.507 177.258 175.812 172.25 171.167 171.626C168.07 171.209 166.147 169.954 165.398 167.861L155 165.885Z" fill="#020101"/>
<path fill-rule="evenodd" clip-rule="evenodd" d="M149.635 164.871C148.211 169.515 147.293 172.889 146.884 174.992C146.269 178.147 165.633 177.248 167.888 177.248C170.143 177.248 170.448 171.799 165.803 171.119C162.706 170.666 160.783 169.3 160.034 167.022L149.635 164.871Z" fill="#393035"/>
<path fill-rule="evenodd" clip-rule="evenodd" d="M120.599 107.326C116.39 114.329 117.566 120.009 124.126 124.368C130.687 128.726 143.571 129.487 162.778 126.652L149.079 165.229L162.048 168.564L178.53 128.89C180.077 125.166 179.627 120.911 177.334 117.594C175.004 114.22 171.299 112.051 167.216 111.671L120.599 107.326Z" fill="#3F377C"/>
<path d="M134.417 106.178C131.701 116.411 133.108 121.528 138.637 121.528C144.165 121.528 154.19 121.911 168.71 122.677L151.465 165.502" stroke="white"/>
<path fill-rule="evenodd" clip-rule="evenodd" d="M150.701 71.7314C150.695 70.4077 149.846 69.1669 148.154 68.0091C145.615 66.2723 142.707 64.8039 141.928 65.3352C141.409 65.6895 140.885 66.387 140.355 67.4279L150.701 71.7314Z" fill="#18233D"/>
<path fill-rule="evenodd" clip-rule="evenodd" d="M120.368 107.414C118.919 106.042 118.919 104.56 120.368 102.967C122.542 100.578 127.446 75.7694 132.001 71.5469C135.038 68.7319 137.958 67.1348 140.763 66.7558C144.72 68.0777 147.674 69.2032 149.626 70.1324C151.578 71.0615 151.978 71.533 150.827 71.5469C151.205 77.8819 151.051 82.631 150.366 85.7939C149.337 90.5384 144.143 102.186 144.143 109.622L120.368 107.414Z" fill="url(#paint2_linear_154_5319)"/>
<path fill-rule="evenodd" clip-rule="evenodd" d="M141.209 66.9054C135.48 69.8404 131.781 74.2932 130.111 80.2636C127.563 89.3729 122.546 105.029 121.572 107.326C121.546 107.388 121.516 107.452 121.482 107.518L120.368 107.414C118.919 106.042 118.919 104.56 120.368 102.967C122.542 100.578 127.446 75.7694 132.001 71.5469C135.038 68.7319 137.958 67.1348 140.763 66.7558C140.913 66.8059 141.061 66.8558 141.209 66.9054Z" fill="url(#paint3_linear_154_5319)"/>
<path fill-rule="evenodd" clip-rule="evenodd" d="M145.163 70.5125C150.054 69.2221 152.646 71.8028 150.946 80.7085C149.812 86.6456 148.901 90.9252 148.212 93.5474L136.141 91.8588C138.895 78.4882 141.903 71.3727 145.163 70.5125Z" fill="url(#paint4_linear_154_5319)"/>
<path fill-rule="evenodd" clip-rule="evenodd" d="M148.792 70.4272C144.504 72.5625 141.692 75.8413 140.355 80.2637C139.087 84.4614 138.08 88.3821 137.333 92.0257L136.141 91.8588C138.895 78.4882 141.903 71.3727 145.163 70.5125C146.583 70.138 147.808 70.0896 148.792 70.4272Z" fill="url(#paint5_linear_154_5319)"/>
<path fill-rule="evenodd" clip-rule="evenodd" d="M147.14 93.3188L144.061 104.023C151.838 99.204 158.047 96.0846 162.688 94.6645C163.414 94.4421 163.762 93.4806 164.401 93.3188C164.976 93.1729 165.843 93.4027 166.358 93.3188C167.021 93.2109 168.11 92.7245 168.667 92.6949C169.456 92.6529 170.125 93.1826 170.682 93.3188C172.335 93.7228 173.098 94.3324 173.813 95.449C175.22 97.6432 174.154 102.048 172.257 102.448C170.361 102.847 168.265 104.023 166.852 104.023C165.74 104.023 162.34 102.848 165.439 102.448C164.041 100.648 163.934 96.813 162.003 96.813C159.316 96.813 159.711 100.685 160.596 101.566C152.655 110.139 145.491 114.606 139.105 114.968C132.719 115.331 132.144 107.552 137.38 91.6337L147.14 93.3188Z" fill="url(#paint6_linear_154_5319)"/>
<path fill-rule="evenodd" clip-rule="evenodd" d="M159.449 102.781C151.964 110.561 145.182 114.624 139.105 114.969C132.741 115.329 132.148 107.606 137.326 91.797L138.978 91.9352C134.836 104.972 134.222 111.855 137.135 112.585C141.098 113.578 154.745 106.999 159.449 102.781Z" fill="#E59368"/>
<path fill-rule="evenodd" clip-rule="evenodd" d="M146.869 64.1108C146.869 64.1108 149.8 67.638 151.081 68.1034C151.935 68.4136 152.447 68.3302 152.617 67.8532L148.517 62.5457C147.419 63.5891 146.869 64.1108 146.869 64.1108Z" fill="#18233D"/>
<path d="M169.068 87.6025C171.878 88.8783 173.538 91.0471 174.049 94.109" stroke="#706DA5" stroke-width="3" stroke-linecap="round"/>
<path d="M167.024 91.2809C169.282 91.2809 171.112 89.5425 171.112 87.3981C171.112 85.2537 169.282 83.5153 167.024 83.5153C164.767 83.5153 162.937 85.2537 162.937 87.3981C162.937 89.5425 164.767 91.2809 167.024 91.2809Z" fill="#706DA5"/>
<path fill-rule="evenodd" clip-rule="evenodd" d="M145.938 64.2985C143.16 63.2352 138.647 60.8067 139.347 54.4295C140.046 48.0524 144.818 42.1944 153 45.1537C158.455 47.1265 160.397 50.9395 158.828 56.5927L152.162 56.9175C149.865 62.547 147.791 65.0074 145.938 64.2985Z" fill="#219E43"/>
<path fill-rule="evenodd" clip-rule="evenodd" d="M150.362 44.4768C148.464 44.9208 146.662 46.6116 144.954 49.5492C142.475 53.8107 144.468 57.186 150.93 59.675C149.629 62.3037 148.405 63.8396 147.257 64.2827C147.202 64.3019 147.147 64.3205 147.093 64.3386C146.699 64.4557 146.314 64.4423 145.938 64.2985C143.16 63.2352 138.647 60.8067 139.346 54.4295C139.967 48.7719 143.793 43.5229 150.362 44.4768Z" fill="#219E43"/>
<path d="M108.889 157.464H87.1403C86.9033 157.464 86.7112 157.656 86.7112 157.894V158.566C86.7112 158.803 86.9033 158.995 87.1403 158.995H108.889C109.126 158.995 109.318 158.803 109.318 158.566V157.894C109.318 157.656 109.126 157.464 108.889 157.464Z" fill="#A9F5A7"/>
<path d="M108.889 161.292H87.1403C86.9033 161.292 86.7112 161.484 86.7112 161.721V162.393C86.7112 162.63 86.9033 162.823 87.1403 162.823H108.889C109.126 162.823 109.318 162.63 109.318 162.393V161.721C109.318 161.484 109.126 161.292 108.889 161.292Z" fill="#A9F5A7"/>
<path d="M108.889 164.736H87.1403C86.9033 164.736 86.7112 164.928 86.7112 165.165V165.838C86.7112 166.075 86.9033 166.267 87.1403 166.267H108.889C109.126 166.267 109.318 166.075 109.318 165.838V165.165C109.318 164.928 109.126 164.736 108.889 164.736Z" fill="#A9F5A7"/>
<path d="M104 85.9942V89.0058C104 89.5539 103.401 90 102.662 90H57.338C56.5988 90 56 89.5539 56 89.0058V85.9942C56 85.445 56.5988 85 57.338 85H102.662C103.401 85 104 85.445 104 85.9942Z" fill="#76E17E"/>
<defs>
<linearGradient id="paint0_linear_154_5319" x1="160.089" y1="90.1027" x2="160.089" y2="105.029" gradientUnits="userSpaceOnUse">
<stop stop-color="#FFA864"/>
<stop offset="1" stop-color="#DB6F3A"/>
</linearGradient>
<linearGradient id="paint1_linear_154_5319" x1="153.767" y1="55.2737" x2="153.767" y2="64.0767" gradientUnits="userSpaceOnUse">
<stop stop-color="white"/>
<stop offset="1" stop-color="#E5E9F3"/>
</linearGradient>
<linearGradient id="paint2_linear_154_5319" x1="135.374" y1="66.7558" x2="135.374" y2="109.622" gradientUnits="userSpaceOnUse">
<stop stop-color="white"/>
<stop offset="1" stop-color="#E5E9F3"/>
</linearGradient>
<linearGradient id="paint3_linear_154_5319" x1="130.245" y1="66.7558" x2="130.245" y2="107.518" gradientUnits="userSpaceOnUse">
<stop stop-color="#E8EDF9"/>
<stop offset="1" stop-color="#CDD7F0"/>
</linearGradient>
<linearGradient id="paint4_linear_154_5319" x1="143.804" y1="70.2004" x2="143.804" y2="93.5474" gradientUnits="userSpaceOnUse">
<stop stop-color="white"/>
<stop offset="1" stop-color="#E5E9F3"/>
</linearGradient>
<linearGradient id="paint5_linear_154_5319" x1="142.466" y1="70.2004" x2="142.466" y2="92.0257" gradientUnits="userSpaceOnUse">
<stop stop-color="white"/>
<stop offset="1" stop-color="#CDD7F0"/>
</linearGradient>
<linearGradient id="paint6_linear_154_5319" x1="154.15" y1="91.6337" x2="154.15" y2="114.981" gradientUnits="userSpaceOnUse">
<stop stop-color="#FFC698"/>
<stop offset="1" stop-color="#FF945F"/>
</linearGradient>
</defs>
</svg>
