<svg width="297" height="200" viewBox="0 0 297 200" fill="none" xmlns="http://www.w3.org/2000/svg">
<path fill-rule="evenodd" clip-rule="evenodd" d="M9.14336 80.082C-20.0312 136.012 21.9985 199.48 115.419 199.989C208.84 200.497 315.69 183.878 293.968 125.807C272.246 67.7362 190.639 125.486 146.746 79.1671C102.853 32.8481 38.3179 24.1524 9.14336 80.082Z" fill="#E9F5EC"/>
<path fill-rule="evenodd" clip-rule="evenodd" d="M26.2905 171.514L274.525 174.239C232.788 191.413 185.756 200 133.43 200C81.1036 200 45.3905 190.505 26.2905 171.514Z" fill="url(#paint0_linear_154_4122)"/>
<path fill-rule="evenodd" clip-rule="evenodd" d="M184.131 58.4483C193.945 83.0143 250.336 92.895 258.94 76.5936C267.543 60.2921 241.39 57.7123 226.582 35.4077C211.773 13.1032 174.318 33.8822 184.131 58.4483Z" fill="#E9F5EC"/>
<path fill-rule="evenodd" clip-rule="evenodd" d="M119.081 80.9335H220.119V177.332H119.081V80.9335Z" fill="#D9E4FF"/>
<path d="M119.081 107.224H220.119V111.863H119.081V107.224Z" fill="#CDCFCF"/>
<path d="M231.363 97.6873L221.471 88.1505H117.02L107.224 97.6873V104.077C107.224 105.793 108.679 107.224 110.522 107.224H228.162C230.005 107.224 231.46 105.793 231.46 104.077L231.363 97.6873Z" fill="#E4E7E7"/>
<path d="M230.944 97.4295L221.33 88.1505H116.741L107.224 97.4295H230.944Z" fill="#CDCFCF"/>
<path fill-rule="evenodd" clip-rule="evenodd" d="M125.687 74.232H213.415L220.119 80.9335H119.081L125.687 74.232Z" fill="url(#paint1_linear_154_4122)"/>
<path d="M125.782 171.57H148.046V107.224H125.782V171.57ZM154.822 177.332H183.862V107.224H154.822V177.332ZM190.638 107.224V171.57H212.902V107.224H190.638ZM125.782 171.57H148.046V107.224H125.782V171.57ZM154.822 177.332H183.862V107.224H154.822V177.332ZM190.638 107.224V171.57H212.902V107.224H190.638Z" fill="#779CF7"/>
<path fill-rule="evenodd" clip-rule="evenodd" d="M164.032 122.689H175.168C176.911 122.689 178.363 124.119 178.363 125.929V130.79C178.363 132.6 176.911 134.03 175.168 134.03H164.032C162.289 134.03 160.836 132.6 160.836 130.79V125.929C160.836 124.119 162.289 122.689 164.032 122.689Z" fill="url(#paint2_linear_154_4122)"/>
<path d="M175.071 125.548C175.168 125.548 175.362 125.739 175.362 125.929V130.79C175.362 131.076 175.168 131.171 175.071 131.171H164.032C163.935 131.171 163.741 130.98 163.741 130.79V125.929C163.741 125.643 163.935 125.548 164.032 125.548H175.071ZM175.071 122.689H164.032C162.289 122.689 160.836 124.119 160.836 125.929V130.79C160.836 132.6 162.289 134.03 164.032 134.03H175.168C176.911 134.03 178.363 132.6 178.363 130.79V125.929C178.266 124.119 176.814 122.689 175.071 122.689Z" fill="#E4E7E7"/>
<path d="M148.046 147.273H139.334V136.607H125.782V171.514H148.046V147.273H148.046ZM154.822 147.273H166.438V177.332H154.822V147.273ZM190.638 137.577H212.902V171.514H190.638V137.577ZM176.118 154.061H183.862V177.332H176.118V154.061Z" fill="#5380F0"/>
<path fill-rule="evenodd" clip-rule="evenodd" d="M204.693 166.161C206.244 166.161 207.699 166.643 208.96 167.511C209.833 162.21 214.488 158.258 220.113 158.258C226.32 158.258 231.46 163.174 231.46 169.342C231.46 175.51 226.417 180.425 220.113 180.425H204.789C200.813 180.425 197.516 177.245 197.516 173.293C197.419 169.342 200.716 166.161 204.693 166.161ZM133.895 166.161C132.343 166.161 130.888 166.643 129.628 167.511C128.755 162.21 124.1 158.258 118.475 158.258C112.268 158.258 107.224 163.27 107.224 169.342C107.224 175.51 112.268 180.425 118.571 180.425H133.895C137.871 180.425 141.169 177.245 141.169 173.293C141.169 169.342 137.871 166.161 133.895 166.161Z" fill="url(#paint3_linear_154_4122)"/>
<path fill-rule="evenodd" clip-rule="evenodd" d="M133.916 177.57H118.58C112.854 177.57 108.098 173.382 107.419 168.053C107.224 168.529 107.224 169.005 107.224 169.481C107.224 175.571 112.271 180.425 118.58 180.425H133.916C137.895 180.425 141.195 177.284 141.195 173.382C141.195 172.907 141.098 172.431 141.001 171.955C140.322 175.191 137.41 177.57 133.916 177.57ZM220.104 177.57H204.769C201.275 177.57 198.363 175.191 197.683 171.955C197.586 172.431 197.489 172.906 197.489 173.382C197.489 177.284 200.789 180.425 204.769 180.425H220.104C226.316 180.425 231.46 175.571 231.46 169.481C231.46 169.005 231.46 168.529 231.363 168.053C230.586 173.383 225.928 177.57 220.104 177.57Z" fill="#95B53B"/>
<path d="M190.638 107.224H212.902V111.863H190.638V107.224ZM125.782 107.224H148.046V111.863H125.782V107.224ZM154.822 107.224H183.862V111.863H154.822V107.224Z" fill="#5380F0"/>
<path d="M221.56 88.1508H215.931L224.666 97.6874V107.224H228.16C230.004 107.224 231.46 105.793 231.46 104.077V97.6874L231.363 97.592C231.363 97.5917 221.56 88.1508 221.56 88.1508ZM140.127 97.4012L144.01 88.1508H138.38L133.43 97.4012V107.224H140.127V97.4012ZM119.842 107.224H126.539V97.6871L133.43 88.1505H126.927L119.842 97.6871V107.224ZM166.43 97.5917L167.401 88.1505H160.607L159.733 97.4963V107.224H166.43L166.43 97.5917ZM153.716 107.128V97.4012L155.754 88.1508H149.445L147.019 97.4012V107.128H153.716ZM205.254 107.224V97.4012L200.304 88.2462H194.675L198.46 97.4012V107.224H205.254ZM218.842 107.224V97.6871L211.757 88.1505H205.254L212.145 97.6871V107.224H218.842ZM110.524 107.224H114.018V97.6871L122.754 88.1505H117.027L107.224 97.6871V103.981C107.224 105.793 108.68 107.224 110.524 107.224ZM178.951 107.224V97.592L178.077 88.1508H171.283L172.254 97.592V107.224H178.951ZM184.969 97.4012V107.128H191.666V97.4012L189.239 88.1508H182.93L184.969 97.4012Z" fill="#E2574C"/>
<path d="M219.794 88.1508L229.398 97.4295H224.564L216.169 88.1508H219.794ZM142.279 88.1508L138.399 97.4295H133.633L138.537 88.1508H142.279ZM127.071 88.1505H131.705L125.011 97.4295H120.262L127.071 88.1505ZM160.787 88.1505H165.66L164.69 97.4295H159.93L160.787 88.1505ZM154.018 88.1508L151.981 97.4295H147.209L149.613 88.1508H154.018ZM198.548 88.2475L203.398 97.4293H198.641L194.891 88.2475H198.548ZM205.481 88.1505H209.995L216.786 97.4295H212.104L205.481 88.1505ZM117.161 88.1505H121.034L112.593 97.4295H107.74L117.161 88.1505ZM176.331 88.1508L177.204 97.4295H172.417L171.475 88.1508H176.331ZM185.154 97.4295L183.134 88.1508H187.391L189.913 97.4295H185.154Z" fill="#BD433A"/>
<path fill-rule="evenodd" clip-rule="evenodd" d="M26.2486 147.948L19.5891 165.216C29.262 175.302 36.6508 181.754 41.7556 184.572C56.1012 192.491 68.645 196.451 79.3871 196.451L94.8521 149.44L26.2486 147.948Z" fill="#D9E4FF"/>
<path d="M60.3136 156.712C79.3887 156.712 94.8521 153.135 94.8521 148.722C94.8521 144.309 79.3887 140.732 60.3136 140.732C41.2386 140.732 25.7751 144.309 25.7751 148.722C25.7751 153.135 41.2386 156.712 60.3136 156.712Z" fill="#5377D0"/>
<path fill-rule="evenodd" clip-rule="evenodd" d="M53.7563 156.882C31.9892 155.465 69.0185 45.4301 69.8248 61.201C94.9246 41.0514 109.313 29.5238 112.992 26.6183C116.161 24.1144 121.085 18.4551 127.765 9.64015C129.679 7.11298 133.208 6.46793 135.893 8.15418C138.535 9.81345 139.339 13.2965 137.691 15.9457L126.502 33.9332L112.992 48.9034L142.529 20.5414C144.721 18.4364 148.196 18.4781 150.337 20.6353C152.521 22.8349 152.661 26.3384 150.66 28.7054L120.688 64.1694L126.502 78.4851C127.05 86.9563 125.526 92.6524 121.929 95.5734C118.332 98.4944 109.475 107.276 95.3575 121.919L87.4464 153.897C79.4977 156.832 68.2677 157.827 53.7563 156.882Z" fill="url(#paint4_linear_154_4122)"/>
<path fill-rule="evenodd" clip-rule="evenodd" d="M124.751 58.767L125.022 35.0132L140.879 21.2384C143.41 19.0406 147.089 18.7824 149.901 20.6053C152.202 22.0966 152.858 25.1706 151.367 27.4712C151.249 27.6528 151.12 27.8264 150.979 27.991L124.751 58.767Z" fill="#FF9B6F"/>
<path fill-rule="evenodd" clip-rule="evenodd" d="M68.6806 104.131L59.7981 113.41L104.679 106.708L68.6806 104.131Z" fill="#E59368"/>
<path fill-rule="evenodd" clip-rule="evenodd" d="M120.881 0H73.7225C71.1602 0 69.083 2.07717 69.083 4.6395C69.083 4.64288 69.083 4.64626 69.083 4.64964L69.296 102.079C69.3016 104.638 71.3771 106.709 73.9355 106.709H121.094C123.656 106.709 125.733 104.631 125.733 102.069C125.733 102.066 125.733 102.062 125.733 102.059L125.52 4.62936C125.515 2.071 123.439 0 120.881 0Z" fill="#18233D"/>
<path d="M70.7432 11.6287C70.7432 11.1685 71.1163 10.7954 71.5765 10.7954C72.0367 10.7954 72.4098 11.1685 72.4098 11.6287V32.3834C72.4098 32.8436 72.0367 33.2167 71.5765 33.2167C71.1163 33.2167 70.7432 32.8436 70.7432 32.3834V11.6287Z" fill="#C7DBFF"/>
<path d="M70.3269 11.6287C70.3269 11.1685 70.7 10.7954 71.1602 10.7954C71.6204 10.7954 71.9935 11.1685 71.9935 11.6287V32.3834C71.9935 32.8436 71.6204 33.2167 71.1602 33.2167C70.7 33.2167 70.3269 32.8436 70.3269 32.3834V11.6287Z" fill="white"/>
<path fill-rule="evenodd" clip-rule="evenodd" d="M125.047 0H77.8888C75.3265 0 73.2493 2.07717 73.2493 4.6395C73.2493 4.64288 73.2493 4.64626 73.2493 4.64964L73.4623 102.079C73.4679 104.638 75.5434 106.709 78.1018 106.709H125.26C127.822 106.709 129.9 104.631 129.9 102.069C129.9 102.066 129.9 102.062 129.9 102.059L129.687 4.62936C129.681 2.071 127.605 0 125.047 0Z" fill="#DCE8FF"/>
<mask id="mask0_154_4122" style="mask-type:alpha" maskUnits="userSpaceOnUse" x="99" y="99" width="7" height="7">
<path d="M102.409 105.048C100.798 105.048 99.4921 103.746 99.4921 102.141C99.4921 100.536 100.798 99.2347 102.409 99.2347C104.019 99.2347 105.325 100.536 105.325 102.141C105.325 103.746 104.019 105.048 102.409 105.048Z" fill="white"/>
</mask>
<g mask="url(#mask0_154_4122)">
<path d="M102.408 105.048C100.798 105.048 99.4918 103.746 99.4918 102.141C99.4918 100.536 100.798 99.2347 102.408 99.2347C104.019 99.2347 105.325 100.536 105.325 102.141C105.325 103.746 104.019 105.048 102.408 105.048Z" fill="#2760CB"/>
<path d="M101.575 105.048C99.9643 105.048 98.6586 103.746 98.6586 102.141C98.6586 100.536 99.9643 99.2347 101.575 99.2347C103.186 99.2347 104.492 100.536 104.492 102.141C104.492 103.746 103.186 105.048 101.575 105.048Z" fill="white"/>
</g>
<mask id="mask1_154_4122" style="mask-type:alpha" maskUnits="userSpaceOnUse" x="74" y="1" width="55" height="97">
<path d="M123.594 1.66083H111.949C111.24 1.66083 110.613 2.12312 110.404 2.80092C110.195 3.47873 109.568 3.94102 108.859 3.94102H95.883C94.9614 3.94102 94.0899 3.5214 93.5151 2.80092C92.9404 2.08044 92.0689 1.66083 91.1473 1.66083H79.7395C77.181 1.66083 75.1054 3.732 75.1 6.29048L74.916 92.9246C74.9106 95.4869 76.9833 97.5685 79.5457 97.5739C79.5489 97.5739 79.5522 97.5739 79.5555 97.5739H123.41C125.968 97.5739 128.044 95.5027 128.049 92.9443L128.233 6.31018C128.239 3.74786 126.166 1.66628 123.604 1.66084C123.6 1.66083 123.597 1.66083 123.594 1.66083Z" fill="white"/>
</mask>
<g mask="url(#mask1_154_4122)">
<path d="M123.594 1.66083H111.949C111.24 1.66083 110.613 2.12312 110.404 2.80092C110.195 3.47873 109.568 3.94102 108.859 3.94102H95.883C94.9614 3.94102 94.0899 3.5214 93.5151 2.80092C92.9404 2.08044 92.0689 1.66083 91.1473 1.66083H79.7395C77.181 1.66083 75.1054 3.732 75.1 6.29048L74.916 92.9246C74.9106 95.4869 76.9833 97.5685 79.5457 97.5739C79.5489 97.5739 79.5522 97.5739 79.5555 97.5739H123.41C125.968 97.5739 128.044 95.5027 128.049 92.9443L128.233 6.31018C128.239 3.74786 126.166 1.66628 123.604 1.66084C123.6 1.66083 123.597 1.66083 123.594 1.66083Z" fill="white"/>
<path d="M94.8526 72.4278H113.926" stroke="#779CF7" stroke-width="3"/>
<path d="M94.8526 76.4229L116.233 76.5518" stroke="#779CF7" stroke-width="3"/>
<path d="M94.8526 80.1603H108.256" stroke="#779CF7" stroke-width="3"/>
<path d="M85.0581 81.9645C88.1899 81.9645 90.7286 79.4258 90.7286 76.294C90.7286 73.1623 88.1899 70.6235 85.0581 70.6235C81.9264 70.6235 79.3876 73.1623 79.3876 76.294C79.3876 79.4258 81.9264 81.9645 85.0581 81.9645Z" fill="#779CF7"/>
<mask id="mask2_154_4122" style="mask-type:alpha" maskUnits="userSpaceOnUse" x="77" y="9" width="50" height="56">
<path d="M123.911 9.79449H79.9025C78.479 9.79449 77.325 10.9485 77.325 12.372V62.3755C77.325 63.799 78.479 64.953 79.9025 64.953H123.911C125.334 64.953 126.488 63.799 126.488 62.3755V12.372C126.488 10.9485 125.334 9.79449 123.911 9.79449Z" fill="white"/>
</mask>
<g mask="url(#mask2_154_4122)">
<path d="M123.911 9.79449H79.9025C78.479 9.79449 77.325 10.9485 77.325 12.372V62.3755C77.325 63.799 78.479 64.953 79.9025 64.953H123.911C125.334 64.953 126.488 63.799 126.488 62.3755V12.372C126.488 10.9485 125.334 9.79449 123.911 9.79449Z" fill="#C7DBFF"/>
<path d="M82.4799 7.73248L129.648 37.3737" stroke="white" stroke-width="3"/>
<path d="M81.4491 40.7245L124.69 69.077" stroke="white" stroke-width="3"/>
<path d="M76.2941 56.9141L89.5333 44.2079C92.1031 41.7416 95.964 41.1998 99.1134 42.8634C102.25 44.5205 106.101 43.9423 108.613 41.4367L127.586 22.5118L116.358 15.2856C110.14 11.2837 101.93 12.4292 97.045 17.9803L96.0293 19.1344C90.7541 25.1286 81.6996 25.9191 75.4655 20.9298L74.91 20.4851" stroke="white" stroke-width="3"/>
<path d="M74.6274 48.5213L114.658 8.32489" stroke="white" stroke-width="3"/>
</g>
</g>
<path d="M96.8323 2.07605H105.483C105.625 2.07605 105.741 2.19145 105.741 2.3338C105.741 2.47615 105.625 2.59155 105.483 2.59155H96.8323C96.69 2.59155 96.5746 2.47615 96.5746 2.3338C96.5746 2.19145 96.69 2.07605 96.8323 2.07605Z" fill="#19243D"/>
<path d="M108.032 2.90645C107.687 2.90645 107.407 2.62761 107.407 2.28364C107.407 1.93967 107.687 1.66083 108.032 1.66083C108.378 1.66083 108.657 1.93967 108.657 2.28364C108.657 2.62761 108.378 2.90645 108.032 2.90645Z" fill="#19243D"/>
<path d="M71.9935 22.006H70.3269" stroke="#85B0FF" stroke-width="1.8"/>
<path fill-rule="evenodd" clip-rule="evenodd" d="M130.989 70.108L138.33 76.5519C140.02 78.0347 140.408 80.5129 139.254 82.4417L139.183 82.5609C137.921 84.6688 136.159 86.4333 134.053 87.6982L120.835 95.6377C119.16 96.6438 116.992 96.1698 115.889 94.5567C114.762 92.9076 115.016 90.6809 116.487 89.3287L130.989 75.9932V70.108Z" fill="url(#paint5_linear_154_4122)"/>
<path fill-rule="evenodd" clip-rule="evenodd" d="M69.0494 105.088C73.8792 98.8755 76.2941 90.4777 76.2941 79.8949C76.2941 69.3122 73.8792 60.4442 69.0494 53.2909V40.4442C69.0494 34.3315 67.9334 28.2702 65.7564 22.5583L63.6427 17.0125C62.9327 15.1495 61.1461 13.9185 59.1524 13.9185C57.3238 13.9185 55.8414 15.4009 55.8414 17.2296V54.9586C55.1034 80.8897 52.0256 101.067 46.6079 115.49C41.1903 129.912 36.308 142.372 31.9611 152.87C48.1606 157.714 57.8802 157.978 61.12 153.66C64.3598 149.342 64.8076 135.528 62.4635 112.218L69.0494 105.088Z" fill="url(#paint6_linear_154_4122)"/>
<path fill-rule="evenodd" clip-rule="evenodd" d="M129.762 54.1275L138.351 61.6657C140.327 63.4003 140.782 66.2993 139.431 68.5556L139.021 69.2402C137.76 71.3481 135.998 73.1126 133.892 74.3776L117.885 83.9925C115.926 85.1695 113.388 84.615 112.099 82.7279C110.78 80.7987 111.078 78.1939 112.798 76.6121L129.762 61.0121V54.1275Z" fill="url(#paint7_linear_154_4122)"/>
<path fill-rule="evenodd" clip-rule="evenodd" d="M66.8268 136.697C77.2442 137.982 85.6599 136.399 92.0739 131.946L93.0917 128.307C94.6248 129.685 94.7419 133.115 93.4429 138.597C91.4944 146.819 76.1095 149.552 65.4466 148.087C54.7836 146.623 41.7327 139.15 40.1066 131.946C39.5478 129.47 39.2295 129.155 41.3736 123.742C42.8029 120.134 44.1672 118.236 45.4663 118.049L44.192 121.88C48.8644 130.472 56.4094 135.411 66.8268 136.697Z" fill="#779CF7"/>
<path fill-rule="evenodd" clip-rule="evenodd" d="M45.5024 118.049L44.2201 121.88C48.9218 130.472 56.5139 135.411 66.9965 136.697C69.9072 137.054 72.6627 137.189 75.2629 137.104L75.2628 148.308C71.9389 148.577 68.5897 148.494 65.6076 148.087C54.878 146.623 41.7455 139.15 40.1091 131.946C39.5469 129.47 39.2266 129.155 41.3841 123.742C42.8224 120.134 44.1952 118.236 45.5024 118.049Z" fill="#497AF3"/>
<path fill-rule="evenodd" clip-rule="evenodd" d="M41.7556 130.783C43.7911 128.552 47.1439 128.127 49.6719 129.779C54.2945 132.799 58.1854 134.732 61.3446 135.576L41.7556 130.783Z" fill="#18233D"/>
<path d="M84.2844 142.278C84.9961 142.278 85.5731 141.701 85.5731 140.989C85.5731 140.277 84.9961 139.701 84.2844 139.701C83.5726 139.701 82.9956 140.277 82.9956 140.989C82.9956 141.701 83.5726 142.278 84.2844 142.278Z" fill="#18233D"/>
<path fill-rule="evenodd" clip-rule="evenodd" d="M66.4433 136.878C66.4433 136.878 59.6089 135.953 54.1154 133.515C51.4759 132.343 48.7755 130.846 46.0141 129.022C44.1914 127.818 41.7384 128.316 40.5291 130.135C39.1965 132.139 39.4809 134.809 41.2058 136.487C46.3693 141.511 50.9329 144.715 54.8966 146.097C61.9408 148.554 67.2336 148.98 73.446 148.98L76.2942 146.097V138.391C69.7269 137.383 66.4433 136.878 66.4433 136.878Z" fill="#779CF7"/>
<path fill-rule="evenodd" clip-rule="evenodd" d="M66.5251 136.607C70.8694 136.607 73.489 136.607 74.3839 136.607C75.7261 136.607 77.8115 137.721 77.2228 142.806C76.634 147.891 75.533 148.979 74.0271 148.979C73.0232 148.979 70.1704 148.606 65.4686 147.858L72.6831 147.143C73.6696 147.045 74.4468 146.259 74.5338 145.271L74.9778 140.229C75.0695 139.188 74.3678 138.243 73.3447 138.03L66.5251 136.607Z" fill="white"/>
<path d="M71.3969 144.856C72.3933 144.856 73.2011 144.048 73.2011 143.051C73.2011 142.055 72.3933 141.247 71.3969 141.247C70.4004 141.247 69.5926 142.055 69.5926 143.051C69.5926 144.048 70.4004 144.856 71.3969 144.856Z" fill="#18233D"/>
<path d="M60.0559 142.278C60.7676 142.278 61.3446 141.701 61.3446 140.989C61.3446 140.277 60.7676 139.701 60.0559 139.701C59.3441 139.701 58.7671 140.277 58.7671 140.989C58.7671 141.701 59.3441 142.278 60.0559 142.278Z" fill="#18233D"/>
<path fill-rule="evenodd" clip-rule="evenodd" d="M70.74 143.163C70.6805 143.615 70.9987 144.029 71.4506 144.089C71.472 144.092 71.4934 144.094 71.5149 144.095L75.5581 144.308C75.8984 144.326 76.1933 144.075 76.2295 143.736C76.2656 143.397 76.03 143.09 75.6938 143.037L71.7382 142.416C71.2632 142.342 70.8177 142.666 70.7431 143.141C70.742 143.149 70.7409 143.156 70.74 143.163Z" fill="#D7E3FF"/>
<path d="M48.7149 137.123C49.4266 137.123 50.0036 136.546 50.0036 135.834C50.0036 135.122 49.4266 134.545 48.7149 134.545C48.0031 134.545 47.4261 135.122 47.4261 135.834C47.4261 136.546 48.0031 137.123 48.7149 137.123Z" fill="#18233D"/>
<path opacity="0.4" d="M101.038 56.705C108.725 56.705 114.957 50.4735 114.957 42.7865C114.957 35.0995 108.725 28.868 101.038 28.868C93.3512 28.868 87.1196 35.0995 87.1196 42.7865C87.1196 50.4735 93.3512 56.705 101.038 56.705Z" fill="#779CF7"/>
<path opacity="0.5" d="M101.038 52.581C106.447 52.581 110.833 48.1959 110.833 42.7865C110.833 37.3772 106.447 32.992 101.038 32.992C95.6288 32.992 91.2436 37.3772 91.2436 42.7865C91.2436 48.1959 95.6288 52.581 101.038 52.581Z" fill="#779CF7"/>
<path opacity="0.5" d="M101.038 49.488C104.739 49.488 107.74 46.4877 107.74 42.7865C107.74 39.0854 104.739 36.085 101.038 36.085C97.337 36.085 94.3366 39.0854 94.3366 42.7865C94.3366 46.4877 97.337 49.488 101.038 49.488Z" fill="#779CF7"/>
<path fill-rule="evenodd" clip-rule="evenodd" d="M108.328 16.464C104.302 12.3827 97.7744 12.3827 93.7479 16.464C90.12 20.1416 89.7116 27.0661 92.7904 31.2273L101.038 43.302L109.286 31.2273C112.365 27.0661 111.956 20.1416 108.328 16.464ZM101.296 27.3215C99.4451 27.3215 97.9451 25.7061 97.9451 23.713C97.9451 21.7199 99.4451 20.1045 101.296 20.1045C103.147 20.1045 104.647 21.7199 104.647 23.713C104.647 25.7061 103.147 27.3215 101.296 27.3215Z" fill="#FE5F41"/>
<path fill-rule="evenodd" clip-rule="evenodd" d="M175.179 35.2453C170.248 30.1789 162.251 30.1789 157.318 35.2453C152.874 39.8106 152.374 48.4066 156.145 53.5722L166.249 68.5615L176.352 53.5722C180.124 48.4066 179.624 39.8106 175.179 35.2453ZM166.507 48.457C164.229 48.457 162.383 46.4954 162.383 44.0752C162.383 41.6551 164.229 39.6935 166.507 39.6935C168.784 39.6935 170.631 41.6551 170.631 44.0752C170.631 46.4954 168.784 48.457 166.507 48.457Z" fill="#FE5F41"/>
<defs>
<linearGradient id="paint0_linear_154_4122" x1="150.408" y1="171.514" x2="150.408" y2="200" gradientUnits="userSpaceOnUse">
<stop stop-color="#E36D41"/>
<stop offset="1" stop-color="#E78763"/>
</linearGradient>
<linearGradient id="paint1_linear_154_4122" x1="169.6" y1="74.232" x2="169.6" y2="80.9335" gradientUnits="userSpaceOnUse">
<stop stop-color="#C7DB6D"/>
<stop offset="1" stop-color="#95B53B"/>
</linearGradient>
<linearGradient id="paint2_linear_154_4122" x1="169.6" y1="122.689" x2="169.6" y2="134.03" gradientUnits="userSpaceOnUse">
<stop stop-color="#C7DB6D"/>
<stop offset="1" stop-color="#95B53B"/>
</linearGradient>
<linearGradient id="paint3_linear_154_4122" x1="169.342" y1="158.258" x2="169.342" y2="180.425" gradientUnits="userSpaceOnUse">
<stop stop-color="#C7DB6D"/>
<stop offset="1" stop-color="#95B53B"/>
</linearGradient>
<linearGradient id="paint4_linear_154_4122" x1="99.4916" y1="7.21698" x2="99.4916" y2="157.227" gradientUnits="userSpaceOnUse">
<stop stop-color="#FFC698"/>
<stop offset="1" stop-color="#FF945F"/>
</linearGradient>
<linearGradient id="paint5_linear_154_4122" x1="127.551" y1="70.108" x2="127.551" y2="96.1649" gradientUnits="userSpaceOnUse">
<stop stop-color="#FFC698"/>
<stop offset="1" stop-color="#FF945F"/>
</linearGradient>
<linearGradient id="paint6_linear_154_4122" x1="54.1276" y1="13.9185" x2="54.1276" y2="156.712" gradientUnits="userSpaceOnUse">
<stop stop-color="#FFC698"/>
<stop offset="1" stop-color="#FF945F"/>
</linearGradient>
<linearGradient id="paint7_linear_154_4122" x1="125.741" y1="54.1275" x2="125.741" y2="84.6092" gradientUnits="userSpaceOnUse">
<stop stop-color="#FFC698"/>
<stop offset="1" stop-color="#FF945F"/>
</linearGradient>
</defs>
</svg>
